<svg width="190" height="44" viewBox="0 0 190 44" fill="none" xmlns="http://www.w3.org/2000/svg">
<path d="M12.3231 16.1467H7.60687V24.9467C7.60687 25.7044 7.7843 26.2544 8.13935 26.5967C8.4944 26.9144 9.01414 27.0977 9.69876 27.1467C10.4087 27.171 11.2835 27.1589 12.3231 27.11V30.6667C9.17902 31.0333 6.92225 30.7767 5.55301 29.8967C4.18378 28.9923 3.49916 27.3423 3.49916 24.9467V16.1467H0V12.3333H3.49916V8.37333L7.60687 7.2V12.3333H12.3231V16.1467ZM26.0518 11.8567C28.2323 11.8567 29.9946 12.5289 31.3386 13.8733C32.6823 15.2177 33.3544 17.0633 33.3544 19.41V30.6667H29.2467V19.8133C29.2467 18.4444 28.8664 17.3933 28.1057 16.66C27.345 15.9267 26.3053 15.56 24.9869 15.56C23.5415 15.56 22.375 16 21.4877 16.88C20.6002 17.7356 20.1565 19.0556 20.1565 20.84V30.6667H16.0488V5H20.1565V14.68C21.3989 12.7977 23.3639 11.8567 26.0518 11.8567ZM41.0101 23.1867C41.3144 24.58 42.0118 25.6556 43.102 26.4133C44.1925 27.1467 45.5237 27.5133 47.0956 27.5133C49.2763 27.5133 50.9118 26.7556 52.0021 25.24L55.3871 27.1467C53.5109 29.811 50.7344 31.1433 47.0576 31.1433C43.9643 31.1433 41.4666 30.2389 39.5648 28.43C37.6631 26.5967 36.7123 24.2867 36.7123 21.5C36.7123 18.7623 37.6506 16.4767 39.5268 14.6433C41.4032 12.7856 43.8121 11.8567 46.7533 11.8567C49.5426 11.8567 51.8246 12.7977 53.5995 14.68C55.3999 16.5623 56.3 18.8477 56.3 21.5367C56.3 21.9523 56.2494 22.5023 56.1478 23.1867H41.0101ZM40.9721 19.96H52.1542C51.8754 18.4689 51.2288 17.3444 50.2145 16.5867C49.2256 15.8289 48.0592 15.45 46.7153 15.45C45.1939 15.45 43.9262 15.8533 42.9119 16.66C41.8977 17.4667 41.2511 18.5667 40.9721 19.96ZM70.6783 11.8567C73.2899 11.8567 75.5212 12.7977 77.3723 14.68C79.2233 16.5377 80.1488 18.8111 80.1488 21.5C80.1488 24.2133 79.2233 26.4989 77.3723 28.3567C75.5212 30.2144 73.2899 31.1433 70.6783 31.1433C67.7877 31.1433 65.5689 30.1167 64.0223 28.0633V38H59.9145V12.3333H64.0223V14.9733C65.5689 12.8956 67.7877 11.8567 70.6783 11.8567ZM65.7338 25.7167C66.8748 26.8167 68.3074 27.3667 70.0317 27.3667C71.7558 27.3667 73.1885 26.8167 74.3296 25.7167C75.4706 24.5923 76.0411 23.1867 76.0411 21.5C76.0411 19.8133 75.4706 18.42 74.3296 17.32C73.1885 16.1956 71.7558 15.6333 70.0317 15.6333C68.3074 15.6333 66.8748 16.1956 65.7338 17.32C64.5928 18.42 64.0223 19.8133 64.0223 21.5C64.0223 23.1867 64.5928 24.5923 65.7338 25.7167ZM87.1045 23.1867C87.4088 24.58 88.1062 25.6556 89.1964 26.4133C90.2869 27.1467 91.6181 27.5133 93.19 27.5133C95.3707 27.5133 97.0062 26.7556 98.0965 25.24L101.482 27.1467C99.6053 29.811 96.8288 31.1433 93.152 31.1433C90.0587 31.1433 87.561 30.2389 85.6592 28.43C83.7575 26.5967 82.8067 24.2867 82.8067 21.5C82.8067 18.7623 83.745 16.4767 85.6212 14.6433C87.4976 12.7856 89.9065 11.8567 92.8477 11.8567C95.637 11.8567 97.919 12.7977 99.6939 14.68C101.494 16.5623 102.394 18.8477 102.394 21.5367C102.394 21.9523 102.344 22.5023 102.242 23.1867H87.1045ZM87.0665 19.96H98.2486C97.9698 18.4689 97.3232 17.3444 96.3089 16.5867C95.32 15.8289 94.1536 15.45 92.8097 15.45C91.2883 15.45 90.0206 15.8533 89.0063 16.66C87.9921 17.4667 87.3455 18.5667 87.0665 19.96ZM109.13 23.1867C109.435 24.58 110.132 25.6556 111.222 26.4133C112.313 27.1467 113.644 27.5133 115.216 27.5133C117.396 27.5133 119.032 26.7556 120.122 25.24L123.507 27.1467C121.631 29.811 118.854 31.1433 115.178 31.1433C112.084 31.1433 109.587 30.2389 107.685 28.43C105.783 26.5967 104.833 24.2867 104.833 21.5C104.833 18.7623 105.771 16.4767 107.647 14.6433C109.523 12.7856 111.932 11.8567 114.874 11.8567C117.663 11.8567 119.945 12.7977 121.72 14.68C123.52 16.5623 124.42 18.8477 124.42 21.5367C124.42 21.9523 124.369 22.5023 124.268 23.1867H109.13ZM109.092 19.96H120.274C119.995 18.4689 119.349 17.3444 118.335 16.5867C117.346 15.8289 116.179 15.45 114.836 15.45C113.314 15.45 112.046 15.8533 111.032 16.66C110.018 17.4667 109.371 18.5667 109.092 19.96ZM132.142 15.4133C133.182 13.14 135.134 12.0033 138 12.0033V16.2933C136.427 16.1956 135.058 16.5623 133.892 17.3933C132.725 18.2 132.142 19.5444 132.142 21.4267V30.6667H128.035V12.3333H132.142V15.4133Z" fill="#5DCBD5"/>
<path d="M161.145 3.2676C162.12 1.57747 164.558 1.57747 165.533 3.2676L173.335 16.7887C174.311 18.4788 173.092 20.5915 171.141 20.5915H155.537C153.587 20.5915 152.368 18.4788 153.343 16.7887L161.145 3.2676Z" fill="#5DCBD5"/>
<path d="M174.894 40.7746C173.919 42.4647 171.481 42.4647 170.505 40.7746L162.704 27.2535C161.728 25.5634 162.947 23.4507 164.898 23.4507H180.501C182.452 23.4507 183.671 25.5634 182.696 27.2535L174.894 40.7746Z" fill="#F8AF3A"/>
</svg>
