<?xml version="1.0" standalone="no"?>
<!DOCTYPE svg PUBLIC "-//W3C//DTD SVG 1.1//EN" "http://www.w3.org/Graphics/SVG/1.1/DTD/svg11.dtd" >
<svg xmlns="http://www.w3.org/2000/svg">
<metadata>Generated by IcoMoon</metadata>
<defs>
<font id="icomoon" horiz-adv-x="1024">
<font-face units-per-em="1024" ascent="960" descent="-64" />
<missing-glyph horiz-adv-x="1024" />
<glyph unicode="&#x20;" horiz-adv-x="512" d="" />
<glyph unicode="&#xe900;" glyph-name="users16" d="M384.010 906.656c-111.93 0-202.666-90.737-202.666-202.666s90.737-202.667 202.666-202.667c111.932 0 202.667 90.737 202.667 202.667s-90.735 202.666-202.667 202.666zM245.344 703.99c0 76.584 62.083 138.666 138.666 138.666s138.667-62.083 138.667-138.666-62.084-138.667-138.667-138.667c-76.584 0-138.666 62.083-138.666 138.667zM640 864c-17.672 0-32-14.327-32-32s14.328-32 32-32c53.018 0 96-42.98 96-96s-42.982-96-96-96c-17.672 0-32-14.327-32-32s14.328-32 32-32c88.365 0 160 71.635 160 160s-71.635 160-160 160zM156.945 383.14c59.707 34.116 140.054 54.204 227.066 54.204s167.36-20.088 227.068-54.204c58.797-33.6 103.597-84.893 103.597-148.465 0-63.565-44.8-114.861-103.597-148.461-59.708-34.118-140.058-54.202-227.068-54.202s-167.359 20.083-227.066 54.202c-58.801 33.6-103.601 84.896-103.601 148.461 0 63.571 44.8 114.865 103.601 148.465zM188.698 327.571c-49.295-28.166-71.354-62.202-71.354-92.896 0-30.688 22.059-64.723 71.354-92.89 48.39-27.654 117.375-45.773 195.313-45.773s146.923 18.118 195.311 45.773c49.297 28.166 71.354 62.202 71.354 92.89 0 30.694-22.057 64.73-71.354 92.896-48.388 27.652-117.372 45.773-195.311 45.773-77.937 0-146.923-18.121-195.313-45.773zM774.861 393.938c-17.261 3.785-34.33-7.138-38.112-24.401s7.136-34.33 24.403-38.115c33.805-7.415 60.826-20.146 78.656-34.738 17.856-14.611 24.198-28.883 24.198-40.672 0-10.694-5.146-23.251-19.334-36.429-14.285-13.274-36.237-25.536-64.557-34.067-16.928-5.094-26.515-22.944-21.421-39.866 5.101-16.922 22.95-26.509 39.872-21.414 35.098 10.566 66.477 26.912 89.664 48.454 23.296 21.638 39.776 50.106 39.776 83.322 0 36.902-20.23 67.756-47.667 90.203-27.456 22.468-64.442 38.724-105.478 47.722z" />
<glyph unicode="&#xe901;" glyph-name="users20" d="M383.992 906.675c-111.93 0-202.667-90.737-202.667-202.667s90.737-202.666 202.667-202.666c111.931 0 202.668 90.737 202.668 202.666s-90.737 202.667-202.668 202.667zM245.325 704.008c0 76.584 62.083 138.667 138.667 138.667 76.582 0 138.668-62.083 138.668-138.667s-62.086-138.666-138.668-138.666c-76.584 0-138.667 62.083-138.667 138.666zM640 864c-17.674 0-32-14.327-32-32s14.326-32 32-32c53.018 0 96-42.981 96-96s-42.982-96-96-96c-17.674 0-32-14.327-32-32s14.326-32 32-32c88.366 0 160 71.634 160 160s-71.634 160-160 160zM156.926 383.119c59.706 34.12 140.055 54.205 227.066 54.205s167.361-20.086 227.070-54.205c58.798-33.597 103.598-84.89 103.598-148.46s-44.8-114.862-103.598-148.465c-59.709-34.115-140.060-54.205-227.070-54.205-87.011 0-167.359 20.091-227.066 54.205-58.801 33.603-103.601 84.895-103.601 148.465s44.8 114.862 103.601 148.46zM188.679 327.552c-49.295-28.17-71.354-62.203-71.354-92.892s22.060-64.727 71.354-92.897c48.39-27.648 117.375-45.773 195.313-45.773s146.921 18.125 195.311 45.773c49.295 28.17 71.357 62.208 71.357 92.897s-22.062 64.722-71.357 92.892c-48.389 27.653-117.371 45.773-195.311 45.773-77.938 0-146.923-18.12-195.313-45.773zM774.866 393.928c-17.265 3.784-34.33-7.142-38.118-24.402-3.784-17.265 7.142-34.33 24.402-38.113 33.812-7.419 60.826-20.147 78.659-34.739 17.859-14.612 24.197-28.882 24.197-40.673 0-10.696-5.146-23.25-19.328-36.434-14.29-13.271-36.244-25.533-64.563-34.063-16.922-5.094-26.511-22.943-21.417-39.869 5.1-16.922 22.948-26.506 39.869-21.412 35.098 10.568 66.478 26.916 89.667 48.456 23.291 21.642 39.772 50.104 39.772 83.323 0 36.9-20.229 67.758-47.667 90.204-27.453 22.467-64.435 38.723-105.472 47.724z" />
<glyph unicode="&#xe902;" glyph-name="users24" d="M384 906.667c-111.93 0-202.667-90.737-202.667-202.667s90.737-202.667 202.667-202.667c111.932 0 202.667 90.737 202.667 202.667s-90.735 202.667-202.667 202.667zM245.333 704c0 76.584 62.083 138.667 138.667 138.667 76.582 0 138.667-62.083 138.667-138.667s-62.084-138.667-138.667-138.667c-76.584 0-138.667 62.083-138.667 138.667zM640 864c-17.673 0-32-14.327-32-32s14.327-32 32-32c53.018 0 96-42.981 96-96s-42.982-96-96-96c-17.673 0-32-14.327-32-32s14.327-32 32-32c88.367 0 160 71.634 160 160s-71.633 160-160 160zM156.934 383.13c59.706 34.116 140.054 54.204 227.066 54.204 87.010 0 167.36-20.087 227.068-54.204 58.799-33.6 103.599-84.894 103.599-148.463s-44.8-114.863-103.599-148.463c-59.708-34.116-140.058-54.204-227.068-54.204s-167.359 20.087-227.066 54.204c-58.801 33.6-103.601 84.894-103.601 148.463s44.8 114.863 103.601 148.463zM188.687 327.561c-49.295-28.169-71.354-62.204-71.354-92.894s22.059-64.725 71.354-92.894c48.39-27.652 117.375-45.773 195.313-45.773s146.923 18.121 195.311 45.773c49.297 28.169 71.356 62.204 71.356 92.894s-22.059 64.725-71.356 92.894c-48.388 27.652-117.372 45.773-195.311 45.773-77.937 0-146.923-18.121-195.313-45.773zM774.865 393.916c-17.263 3.785-34.33-7.138-38.114-24.401s7.138-34.33 24.401-38.114c33.809-7.415 60.826-20.147 78.66-34.739 17.856-14.609 24.196-28.881 24.196-40.67 0-10.697-5.146-23.253-19.332-36.433-14.289-13.274-36.241-25.536-64.559-34.065-16.926-5.094-26.513-22.942-21.419-39.868 5.099-16.922 22.946-26.509 39.868-21.414 35.098 10.569 66.479 26.914 89.668 48.457 23.292 21.641 39.774 50.103 39.774 83.324 0 36.898-20.233 67.755-47.667 90.202-27.456 22.468-64.439 38.724-105.476 47.723z" />
<glyph unicode="&#xe903;" glyph-name="users161" d="M512.010 906.656c-111.93 0-202.666-90.737-202.666-202.666s90.737-202.667 202.666-202.667c111.932 0 202.665 90.737 202.665 202.667s-90.733 202.666-202.665 202.666zM373.344 703.99c0 76.584 62.084 138.666 138.666 138.666s138.665-62.083 138.665-138.666c0-76.584-62.083-138.667-138.665-138.667s-138.666 62.083-138.666 138.667zM768 821.344c-17.67 0-32-14.327-32-32s14.33-32 32-32c58.733 0 96-38.644 96-74.667s-37.267-74.667-96-74.667c-17.67 0-32-14.327-32-32s14.33-32 32-32c82.656 0 160 56.868 160 138.667s-77.344 138.667-160 138.667zM288 789.344c0 17.673-14.327 32-32 32-82.655 0-160-56.868-160-138.667s77.345-138.667 160-138.667c17.673 0 32 14.327 32 32s-14.327 32-32 32c-58.73 0-96 38.644-96 74.667s37.27 74.667 96 74.667c17.673 0 32 14.327 32 32zM512 437.344c-76.13 0-146.498-20.515-198.77-55.36-52.048-34.701-89.23-86.15-89.23-147.309s37.182-112.602 89.23-147.302c52.272-34.848 122.64-55.36 198.77-55.36s146.496 20.512 198.771 55.36c52.045 34.701 89.229 86.144 89.229 147.302s-37.184 112.608-89.229 147.309c-52.275 34.845-122.641 55.36-198.771 55.36zM288 234.675c0 33.101 20.125 66.982 60.731 94.056 40.382 26.923 98.015 44.612 163.269 44.612s122.888-17.69 163.27-44.612c40.602-27.074 60.73-60.956 60.73-94.056s-20.128-66.982-60.73-94.054c-40.382-26.918-98.016-44.608-163.27-44.608s-122.887 17.69-163.269 44.608c-40.605 27.072-60.731 60.954-60.731 94.054zM822.061 369.537c3.782 17.263 20.851 28.186 38.112 24.401 41.037-8.998 78.022-25.254 105.478-47.722 27.437-22.447 47.667-53.3 47.667-90.203 0-36.896-20.23-67.75-47.667-90.202-27.456-22.464-64.442-38.72-105.478-47.718-17.261-3.789-34.33 7.136-38.112 24.397-3.782 17.267 7.136 34.33 24.403 38.118 33.805 7.411 60.826 20.147 78.656 34.739 17.856 14.605 24.198 28.877 24.198 40.666s-6.342 26.061-24.198 40.672c-17.83 14.592-44.851 27.323-78.656 34.738-17.267 3.785-28.186 20.851-24.403 38.115zM163.802 393.938c17.263 3.785 34.326-7.138 38.112-24.401s-7.14-34.33-24.403-38.115c-33.807-7.415-60.826-20.146-78.657-34.738-17.855-14.611-24.197-28.883-24.197-40.672s6.342-26.061 24.197-40.666c17.832-14.592 44.85-27.328 78.657-34.739 17.263-3.789 28.189-20.851 24.403-38.118-3.786-17.261-20.849-28.186-38.112-24.397-41.041 8.998-78.022 25.254-105.479 47.718-27.432 22.451-47.667 53.306-47.667 90.202 0 36.902 20.235 67.756 47.667 90.203 27.456 22.468 64.438 38.724 105.479 47.722z" />
<glyph unicode="&#xe904;" glyph-name="users201" d="M511.992 906.675c-111.93 0-202.667-90.737-202.667-202.667s90.737-202.666 202.667-202.666c111.931 0 202.668 90.737 202.668 202.666s-90.737 202.667-202.668 202.667zM373.325 704.008c0 76.584 62.085 138.667 138.667 138.667s138.668-62.083 138.668-138.667c0-76.583-62.085-138.666-138.668-138.666s-138.667 62.083-138.667 138.666zM768 821.325c-17.674 0-32-14.327-32-32s14.326-32 32-32c58.732 0 96-38.644 96-74.666s-37.268-74.666-96-74.666c-17.674 0-32-14.327-32-32s14.326-32 32-32c82.652 0 160 56.868 160 138.666s-77.348 138.666-160 138.666zM288 789.325c0 17.673-14.327 32-32 32-82.655 0-160-56.868-160-138.666s77.345-138.666 160-138.666c17.673 0 32 14.327 32 32s-14.327 32-32 32c-58.73 0-96 38.644-96 74.666s37.27 74.666 96 74.666c17.673 0 32 14.327 32 32zM512 437.325c-76.13 0-146.498-20.516-198.77-55.357-52.047-34.703-89.23-86.149-89.23-147.308s37.182-112.609 89.23-147.308c52.272-34.847 122.64-55.363 198.77-55.363s146.493 20.516 198.769 55.363c52.045 34.698 89.231 86.149 89.231 147.308s-37.187 112.604-89.231 147.308c-52.275 34.842-122.639 55.357-198.769 55.357zM288 234.66c0 33.101 20.125 66.98 60.731 94.054 40.382 26.921 98.015 44.611 163.269 44.611s122.89-17.69 163.267-44.611c40.607-27.075 60.733-60.954 60.733-94.054s-20.127-66.985-60.733-94.054c-40.376-26.926-98.012-44.616-163.267-44.616s-122.887 17.69-163.269 44.616c-40.606 27.069-60.731 60.954-60.731 94.054zM822.072 369.526c3.789 17.26 20.854 28.186 38.118 24.402 41.037-9.001 78.019-25.257 105.472-47.724 27.438-22.446 47.667-53.304 47.667-90.204 0-36.895-20.229-67.753-47.667-90.199-27.453-22.472-64.435-38.728-105.472-47.724-17.265-3.784-34.33 7.137-38.118 24.402-3.784 17.26 7.142 34.33 24.402 38.113 33.812 7.414 60.826 20.147 78.664 34.739 17.853 14.607 24.192 28.882 24.192 40.668 0 11.791-6.339 26.061-24.192 40.673-17.838 14.592-44.851 27.32-78.664 34.739-17.26 3.784-28.186 20.849-24.402 38.113zM163.821 393.928c17.263 3.784 34.326-7.142 38.112-24.402 3.786-17.265-7.14-34.33-24.403-38.113-33.807-7.419-60.826-20.147-78.657-34.739-17.856-14.612-24.197-28.882-24.197-40.673 0-11.786 6.341-26.061 24.197-40.668 17.831-14.592 44.85-27.325 78.657-34.739 17.263-3.784 28.189-20.854 24.403-38.113-3.786-17.265-20.849-28.186-38.112-24.402-41.040 8.996-78.022 25.252-105.479 47.724-27.432 22.446-47.667 53.304-47.667 90.199 0 36.9 20.235 67.758 47.667 90.204 27.457 22.467 64.438 38.723 105.479 47.724z" />
<glyph unicode="&#xe905;" glyph-name="users241" d="M512 906.667c-111.93 0-202.667-90.737-202.667-202.667s90.737-202.667 202.667-202.667c111.932 0 202.667 90.737 202.667 202.667s-90.735 202.667-202.667 202.667zM373.333 704c0 76.584 62.084 138.667 138.667 138.667s138.667-62.083 138.667-138.667c0-76.584-62.084-138.667-138.667-138.667s-138.667 62.083-138.667 138.667zM768 821.333c-17.673 0-32-14.327-32-32s14.327-32 32-32c58.731 0 96-38.644 96-74.667s-37.269-74.667-96-74.667c-17.673 0-32-14.327-32-32s14.327-32 32-32c82.654 0 160 56.868 160 138.667s-77.346 138.667-160 138.667zM288 789.333c0 17.673-14.327 32-32 32-82.655 0-160-56.868-160-138.667s77.345-138.667 160-138.667c17.673 0 32 14.327 32 32s-14.327 32-32 32c-58.73 0-96 38.644-96 74.667s37.27 74.667 96 74.667c17.673 0 32 14.327 32 32zM512 437.333c-76.13 0-146.498-20.514-198.77-55.36-52.048-34.701-89.23-86.148-89.23-147.307s37.182-112.606 89.23-147.307c52.272-34.846 122.64-55.36 198.77-55.36s146.496 20.514 198.771 55.36c52.045 34.701 89.229 86.148 89.229 147.307s-37.184 112.606-89.229 147.307c-52.275 34.846-122.641 55.36-198.771 55.36zM288 234.667c0 33.101 20.125 66.982 60.731 94.054 40.382 26.923 98.015 44.612 163.269 44.612s122.889-17.69 163.268-44.612c40.606-27.072 60.732-60.954 60.732-94.054s-20.126-66.982-60.732-94.054c-40.38-26.923-98.014-44.612-163.268-44.612s-122.887 17.69-163.269 44.612c-40.605 27.072-60.731 60.954-60.731 94.054zM822.084 369.515c3.785 17.263 20.851 28.186 38.114 24.401 41.037-8.998 78.020-25.254 105.476-47.723 27.435-22.447 47.667-53.303 47.667-90.202s-20.233-67.755-47.667-90.202c-27.456-22.468-64.439-38.724-105.476-47.723-17.263-3.785-34.33 7.138-38.114 24.401s7.138 34.33 24.401 38.114c33.809 7.415 60.826 20.147 78.66 34.739 17.856 14.609 24.196 28.881 24.196 40.67s-6.34 26.061-24.196 40.67c-17.835 14.592-44.851 27.324-78.66 34.739-17.263 3.785-28.186 20.851-24.401 38.114zM163.812 393.916c17.263 3.785 34.326-7.138 38.112-24.401s-7.14-34.33-24.403-38.114c-33.807-7.415-60.826-20.147-78.657-34.739-17.856-14.609-24.197-28.881-24.197-40.67s6.342-26.061 24.197-40.67c17.832-14.592 44.85-27.324 78.657-34.739 17.263-3.785 28.189-20.851 24.403-38.114s-20.849-28.186-38.112-24.401c-41.041 8.998-78.022 25.254-105.479 47.723-27.432 22.447-47.667 53.303-47.667 90.202s20.235 67.755 47.667 90.202c27.456 22.468 64.438 38.724 105.479 47.723z" />
<glyph unicode="&#xe906;" glyph-name="add-circle-16" d="M544 576c0 17.673-14.328 32-32 32s-32-14.327-32-32v-96h-96c-17.673 0-32-14.328-32-32s14.327-32 32-32h96v-96c0-17.67 14.328-32 32-32s32 14.33 32 32v96h96c17.67 0 32 14.328 32 32s-14.33 32-32 32h-96v96zM512.010 906.656c-253.315 0-458.666-205.352-458.666-458.666s205.352-458.665 458.666-458.665c253.315 0 458.665 205.35 458.665 458.665s-205.35 458.666-458.665 458.666zM117.344 447.99c0 217.968 176.698 394.666 394.666 394.666s394.665-176.698 394.665-394.666c0-217.967-176.698-394.665-394.665-394.665s-394.666 176.698-394.666 394.665z" />
<glyph unicode="&#xe907;" glyph-name="add-circle-20" d="M544 576c0 17.673-14.326 32-32 32s-32-14.327-32-32v-96h-96c-17.673 0-32-14.327-32-32s14.327-32 32-32h96v-96c0-17.674 14.327-32 32-32s32 14.326 32 32v96h96c17.674 0 32 14.326 32 32s-14.326 32-32 32h-96v96zM511.992 906.675c-253.315 0-458.667-205.352-458.667-458.667s205.352-458.668 458.667-458.668c253.315 0 458.668 205.353 458.668 458.668s-205.353 458.667-458.668 458.667zM117.325 448.008c0 217.969 176.698 394.667 394.667 394.667 217.967 0 394.668-176.698 394.668-394.667 0-217.967-176.701-394.668-394.668-394.668-217.969 0-394.667 176.701-394.667 394.668z" />
<glyph unicode="&#xe908;" glyph-name="add-circle-24" d="M544 576c0 17.673-14.327 32-32 32s-32-14.327-32-32v-96h-96c-17.673 0-32-14.327-32-32s14.327-32 32-32h96v-96c0-17.673 14.327-32 32-32s32 14.327 32 32v96h96c17.673 0 32 14.327 32 32s-14.327 32-32 32h-96v96zM512 906.667c-253.315 0-458.667-205.352-458.667-458.667s205.352-458.667 458.667-458.667c253.316 0 458.667 205.35 458.667 458.667 0 253.315-205.35 458.667-458.667 458.667zM117.333 448c0 217.968 176.698 394.667 394.667 394.667 217.967 0 394.667-176.698 394.667-394.667 0-217.967-176.7-394.667-394.667-394.667-217.968 0-394.667 176.7-394.667 394.667z" />
<glyph unicode="&#xe909;" glyph-name="add-square-16" d="M544 576c0 17.673-14.328 32-32 32s-32-14.327-32-32v-96h-96c-17.673 0-32-14.328-32-32s14.327-32 32-32h96v-96c0-17.67 14.328-32 32-32s32 14.33 32 32v96h96c17.67 0 32 14.328 32 32s-14.33 32-32 32h-96v96zM514.46 906.656h-4.898c-98.49 0-175.676 0.001-235.9-8.096-61.642-8.288-110.283-25.582-148.461-63.761s-55.473-86.819-63.761-148.461c-8.097-60.223-8.096-137.409-8.096-235.9v-4.898c0-98.492-0.001-175.678 8.096-235.902 8.288-61.638 25.582-110.285 63.761-148.461s86.819-55.469 148.461-63.763c60.223-8.090 137.409-8.090 235.9-8.090h4.898c98.492 0 175.678 0 235.902 8.090 61.638 8.294 110.285 25.587 148.461 63.763s55.469 86.822 63.763 148.461c8.090 60.224 8.090 137.411 8.090 235.902v4.898c0 98.491 0 175.676-8.090 235.9-8.294 61.642-25.587 110.283-63.763 148.461s-86.822 55.473-148.461 63.761c-60.224 8.097-137.411 8.096-235.902 8.096zM170.455 789.545c24.305 24.305 57.189 38.253 111.735 45.586 55.466 7.457 128.349 7.525 229.82 7.525s174.351-0.068 229.82-7.525c54.547-7.333 87.43-21.281 111.738-45.586s38.253-57.189 45.581-111.735c7.462-55.466 7.526-128.349 7.526-229.82s-0.064-174.351-7.526-229.82c-7.328-54.547-21.274-87.43-45.581-111.738s-57.19-38.253-111.738-45.581c-55.469-7.462-128.35-7.526-229.82-7.526s-174.355 0.064-229.82 7.526c-54.546 7.328-87.43 21.274-111.735 45.581s-38.253 57.19-45.586 111.738c-7.457 55.469-7.525 128.35-7.525 229.82s0.068 174.355 7.525 229.82c7.333 54.546 21.281 87.43 45.586 111.735z" />
<glyph unicode="&#xe90a;" glyph-name="add-square-20" d="M544 576c0 17.673-14.326 32-32 32s-32-14.327-32-32v-96h-96c-17.673 0-32-14.327-32-32s14.327-32 32-32h96v-96c0-17.674 14.327-32 32-32s32 14.326 32 32v96h96c17.674 0 32 14.326 32 32s-14.326 32-32 32h-96v96zM514.442 906.675h-4.9c-98.49 0-175.676 0.001-235.899-8.096-61.642-8.288-110.283-25.582-148.462-63.76s-55.473-86.82-63.76-148.462c-8.097-60.223-8.096-137.409-8.096-235.899v-4.9c0-98.488-0.001-175.672 8.096-235.899 8.288-61.64 25.582-110.285 63.76-148.465 38.179-38.175 86.82-55.47 148.462-63.759 60.223-8.095 137.409-8.095 235.899-8.095h4.9c98.488 0 175.672 0 235.899 8.095 61.64 8.289 110.285 25.585 148.465 63.759 38.175 38.18 55.47 86.825 63.759 148.465 8.095 60.227 8.095 137.411 8.095 235.899v4.9c0 98.49 0 175.676-8.095 235.899-8.289 61.642-25.585 110.283-63.759 148.462-38.18 38.178-86.825 55.473-148.465 63.76-60.227 8.097-137.411 8.096-235.899 8.096zM170.437 789.563c24.305 24.306 57.189 38.253 111.734 45.586 55.466 7.457 128.35 7.525 229.821 7.525s174.354-0.068 229.819-7.525c54.543-7.333 87.429-21.281 111.734-45.586 24.31-24.305 38.257-57.189 45.588-111.734 7.455-55.466 7.526-128.35 7.526-229.821s-0.072-174.354-7.526-229.819c-7.332-54.543-21.279-87.429-45.588-111.734-24.305-24.31-57.19-38.257-111.734-45.588-55.465-7.455-128.348-7.526-229.819-7.526s-174.355 0.072-229.821 7.526c-54.545 7.332-87.429 21.279-111.734 45.588-24.306 24.305-38.253 57.19-45.586 111.734-7.457 55.465-7.525 128.348-7.525 229.819s0.068 174.355 7.525 229.821c7.333 54.545 21.281 87.429 45.586 111.734z" />
<glyph unicode="&#xe90b;" glyph-name="add-square-24" d="M544 576c0 17.673-14.327 32-32 32s-32-14.327-32-32v-96h-96c-17.673 0-32-14.327-32-32s14.327-32 32-32h96v-96c0-17.673 14.327-32 32-32s32 14.327 32 32v96h96c17.673 0 32 14.327 32 32s-14.327 32-32 32h-96v96zM514.449 906.667h-4.898c-98.49 0-175.676 0.001-235.899-8.096-61.642-8.288-110.283-25.582-148.462-63.761s-55.473-86.819-63.761-148.462c-8.097-60.223-8.096-137.408-8.096-235.899v-4.898c0-98.492-0.001-175.676 8.096-235.9 8.288-61.641 25.582-110.285 63.761-148.463s86.819-55.471 148.462-63.761c60.223-8.094 137.409-8.094 235.899-8.094h4.898c98.492 0 175.676 0 235.9 8.094 61.641 8.29 110.285 25.583 148.463 63.761s55.471 86.822 63.761 148.463c8.094 60.224 8.094 137.408 8.094 235.9v4.898c0 98.49 0 175.676-8.094 235.899-8.29 61.642-25.583 110.283-63.761 148.462s-86.822 55.473-148.463 63.761c-60.224 8.097-137.408 8.096-235.9 8.096zM170.445 789.555c24.305 24.305 57.189 38.253 111.735 45.586 55.466 7.457 128.349 7.525 229.821 7.525 101.47 0 174.353-0.068 229.82-7.525 54.545-7.334 87.428-21.281 111.735-45.586s38.255-57.189 45.585-111.735c7.458-55.466 7.526-128.349 7.526-229.821 0-101.47-0.068-174.353-7.526-229.82-7.33-54.545-21.278-87.428-45.585-111.735s-57.19-38.255-111.735-45.585c-55.467-7.458-128.35-7.526-229.82-7.526-101.471 0-174.355 0.068-229.821 7.526-54.545 7.33-87.43 21.278-111.735 45.585s-38.253 57.19-45.586 111.735c-7.457 55.467-7.525 128.35-7.525 229.82 0 101.471 0.068 174.355 7.525 229.821 7.334 54.545 21.281 87.43 45.586 111.735z" />
<glyph unicode="&#xe90c;" glyph-name="alt-arrow-down16" d="M189.048 596.825c11.501 13.418 31.703 14.972 45.121 3.471l277.841-238.15 277.839 238.15c13.421 11.501 33.626 9.948 45.126-3.471s9.946-33.62-3.475-45.122l-298.665-256.004c-11.985-10.266-29.666-10.266-41.651 0l-298.666 256.004c-13.418 11.501-14.973 31.704-3.471 45.122z" />
<glyph unicode="&#xe90d;" glyph-name="alt-arrow-down20" d="M189.029 596.825c11.502 13.418 31.703 14.973 45.122 3.471l277.841-238.148 277.84 238.148c13.42 11.502 33.623 9.948 45.128-3.471 11.494-13.418 9.943-33.62-3.476-45.122l-298.665-256.003c-11.986-10.271-29.667-10.271-41.652 0l-298.666 256.003c-13.418 11.502-14.972 31.704-3.471 45.122z" />
<glyph unicode="&#xe90e;" glyph-name="alt-arrow-down24" d="M189.038 596.825c11.502 13.418 31.703 14.973 45.122 3.471l277.841-238.15 277.841 238.15c13.419 11.501 33.621 9.947 45.124-3.471 11.499-13.419 9.946-33.62-3.473-45.122l-298.667-256.002c-11.985-10.27-29.666-10.27-41.651 0l-298.666 256.002c-13.418 11.502-14.973 31.703-3.471 45.122z" />
<glyph unicode="&#xe90f;" glyph-name="alt-arrow-left16" d="M660.826 770.952c13.421-11.501 14.97-31.703 3.469-45.121l-238.148-277.841 238.148-277.839c11.501-13.421 9.952-33.626-3.469-45.126s-33.621-9.946-45.12 3.475l-256.002 298.665c-10.272 11.985-10.272 29.666 0 41.651l256.002 298.666c11.499 13.418 31.699 14.973 45.12 3.471z" />
<glyph unicode="&#xe910;" glyph-name="alt-arrow-left20" d="M660.828 770.971c13.414-11.502 14.971-31.703 3.466-45.122l-238.148-277.841 238.148-277.84c11.505-13.42 9.948-33.623-3.466-45.128-13.42-11.494-33.623-9.943-45.123 3.476l-256.002 298.665c-10.272 11.986-10.272 29.667 0 41.652l256.002 298.666c11.5 13.418 31.703 14.972 45.123 3.471z" />
<glyph unicode="&#xe911;" glyph-name="alt-arrow-left24" d="M660.826 770.962c13.419-11.502 14.972-31.703 3.469-45.122l-238.148-277.841 238.148-277.841c11.503-13.419 9.95-33.621-3.469-45.124-13.419-11.499-33.621-9.946-45.12 3.473l-256.002 298.667c-10.272 11.985-10.272 29.666 0 41.651l256.002 298.666c11.499 13.418 31.701 14.973 45.12 3.471z" />
<glyph unicode="&#xe912;" glyph-name="alt-arrow-right16" d="M363.175 770.952c13.418 11.502 33.62 9.948 45.122-3.471l256.004-298.666c10.266-11.985 10.266-29.667 0-41.651l-256.004-298.665c-11.501-13.421-31.704-14.976-45.122-3.475s-14.972 31.706-3.471 45.126l238.15 277.839-238.15 277.841c-11.501 13.418-9.948 33.62 3.471 45.121z" />
<glyph unicode="&#xe913;" glyph-name="alt-arrow-right20" d="M363.175 770.971c13.418 11.502 33.62 9.947 45.122-3.471l256.003-298.666c10.271-11.985 10.271-29.666 0-41.652l-256.003-298.665c-11.502-13.42-31.704-14.971-45.122-3.476-13.418 11.505-14.973 31.708-3.471 45.128l238.148 277.84-238.148 277.841c-11.502 13.418-9.948 33.62 3.471 45.122z" />
<glyph unicode="&#xe914;" glyph-name="alt-arrow-right24" d="M363.175 770.962c13.418 11.502 33.62 9.947 45.122-3.471l256.002-298.666c10.27-11.985 10.27-29.666 0-41.651l-256.002-298.667c-11.502-13.419-31.703-14.972-45.122-3.473-13.418 11.503-14.973 31.706-3.471 45.124l238.15 277.841-238.15 277.841c-11.502 13.419-9.947 33.62 3.471 45.122z" />
<glyph unicode="&#xe915;" glyph-name="alt-arrow-up16" d="M491.185 600.296c11.985 10.272 29.667 10.272 41.651 0l298.665-256.002c13.421-11.499 14.976-31.699 3.475-45.12s-31.706-14.97-45.126-3.469l-277.839 238.148-277.841-238.148c-13.418-11.501-33.62-9.952-45.121 3.469s-9.948 33.621 3.471 45.12l298.666 256.002z" />
<glyph unicode="&#xe916;" glyph-name="alt-arrow-up20" d="M491.166 600.296c11.985 10.272 29.666 10.272 41.652 0l298.665-256.002c13.42-11.5 14.971-31.703 3.476-45.123-11.505-13.414-31.708-14.971-45.128-3.466l-277.84 238.148-277.841-238.148c-13.418-11.505-33.62-9.948-45.122 3.466-11.502 13.42-9.947 33.623 3.471 45.123l298.666 256.002z" />
<glyph unicode="&#xe917;" glyph-name="alt-arrow-up24" d="M491.174 600.296c11.985 10.272 29.666 10.272 41.651 0l298.667-256.002c13.419-11.499 14.972-31.701 3.473-45.12-11.503-13.419-31.706-14.972-45.124-3.469l-277.841 238.148-277.841-238.148c-13.419-11.503-33.62-9.95-45.122 3.469s-9.947 33.621 3.471 45.12l298.666 256.002z" />
<glyph unicode="&#xe918;" glyph-name="arrow-down16" d="M512 821.344c17.672 0 32-14.327 32-32v-605.408l201.376 201.367c12.493 12.497 32.755 12.497 45.248 0 12.499-12.497 12.499-32.755 0-45.252l-255.998-256c-5.999-6.003-14.14-9.376-22.626-9.376s-16.627 3.373-22.627 9.376l-256.001 256c-12.497 12.497-12.497 32.755 0 45.252s32.758 12.497 45.255 0l201.373-201.367v605.408c0 17.673 14.328 32 32 32z" />
<glyph unicode="&#xe919;" glyph-name="arrow-down20" d="M512 821.325c17.674 0 32-14.327 32-32v-605.409l201.375 201.37c12.498 12.498 32.753 12.498 45.251 0s12.498-32.758 0-45.251l-256-256c-6.001-6.006-14.141-9.375-22.625-9.375-8.486 0-16.627 3.369-22.626 9.375l-256.001 256c-12.497 12.493-12.497 32.753 0 45.251s32.758 12.498 45.255 0l201.373-201.37v605.409c0 17.673 14.327 32 32 32z" />
<glyph unicode="&#xe91a;" glyph-name="arrow-down24" d="M512 821.333c17.673 0 32-14.327 32-32v-605.41l201.374 201.37c12.497 12.497 32.755 12.497 45.252 0s12.497-32.755 0-45.252l-256-256c-5.999-6.003-14.14-9.374-22.626-9.374s-16.627 3.371-22.626 9.374l-256.001 256c-12.497 12.497-12.497 32.755 0 45.252s32.758 12.497 45.255 0l201.373-201.37v605.41c0 17.673 14.327 32 32 32z" />
<glyph unicode="&#xe91b;" glyph-name="arrow-left-down16" d="M790.624 726.628c12.499-12.497 12.499-32.758 0-45.255l-457.369-457.373h306.745c17.67 0 32-14.33 32-32s-14.33-32-32-32h-384c-17.673 0-32 14.33-32 32v384c0 17.673 14.327 32 32 32s32-14.327 32-32v-306.746l457.376 457.373c12.493 12.497 32.755 12.497 45.248 0z" />
<glyph unicode="&#xe91c;" glyph-name="arrow-left-down20" d="M790.625 726.627c12.498-12.496 12.498-32.758 0-45.255l-457.371-457.373h306.745c17.674 0 32-14.326 32-32s-14.326-32-32-32h-384c-17.673 0-32 14.326-32 32v384c0 17.673 14.327 32 32 32s32-14.327 32-32v-306.744l457.375 457.372c12.498 12.497 32.753 12.497 45.251 0z" />
<glyph unicode="&#xe91d;" glyph-name="arrow-left-down24" d="M790.626 726.627c12.497-12.497 12.497-32.758 0-45.255l-457.371-457.373h306.745c17.673 0 32-14.327 32-32s-14.327-32-32-32h-384c-17.673 0-32 14.327-32 32v384c0 17.673 14.327 32 32 32s32-14.327 32-32v-306.743l457.374 457.371c12.497 12.497 32.755 12.497 45.252 0z" />
<glyph unicode="&#xe91e;" glyph-name="arrow-left-up16" d="M224 704c0 17.673 14.327 32 32 32h384c17.67 0 32-14.327 32-32s-14.33-32-32-32h-306.745l457.369-457.376c12.499-12.493 12.499-32.755 0-45.248-12.493-12.499-32.755-12.499-45.248 0l-457.376 457.369v-306.745c0-17.67-14.327-32-32-32s-32 14.33-32 32v384z" />
<glyph unicode="&#xe91f;" glyph-name="arrow-left-up20" d="M224 704c0 17.673 14.327 32 32 32h384c17.674 0 32-14.327 32-32s-14.326-32-32-32h-306.745l457.371-457.375c12.498-12.498 12.498-32.753 0-45.251s-32.753-12.498-45.251 0l-457.375 457.371v-306.745c0-17.674-14.327-32-32-32s-32 14.326-32 32v384z" />
<glyph unicode="&#xe920;" glyph-name="arrow-left-up24" d="M224 704c0 17.673 14.327 32 32 32h384c17.673 0 32-14.327 32-32s-14.327-32-32-32h-306.745l457.371-457.374c12.497-12.497 12.497-32.755 0-45.252s-32.755-12.497-45.252 0l-457.374 457.371v-306.745c0-17.673-14.327-32-32-32s-32 14.327-32 32v384z" />
<glyph unicode="&#xe921;" glyph-name="arrow-left16" d="M449.283 726.628c12.497-12.497 12.497-32.758 0-45.255l-201.372-201.373h605.414c17.67 0 32-14.328 32-32s-14.33-32-32-32h-605.414l201.372-201.376c12.497-12.493 12.497-32.755 0-45.248-12.497-12.499-32.757-12.499-45.254 0l-256 255.998c-12.497 12.497-12.497 32.755 0 45.252l256 256.001c12.497 12.497 32.756 12.497 45.254 0z" />
<glyph unicode="&#xe922;" glyph-name="arrow-left20" d="M449.301 726.627c12.497-12.496 12.497-32.758 0-45.255l-201.371-201.373h605.41c17.674 0 32-14.327 32-32s-14.326-32-32-32h-605.41l201.371-201.375c12.497-12.498 12.497-32.753 0-45.251s-32.757-12.498-45.254 0l-256 256c-12.496 12.498-12.496 32.755 0 45.252l256 256.001c12.497 12.497 32.757 12.497 45.254 0z" />
<glyph unicode="&#xe923;" glyph-name="arrow-left24" d="M449.293 726.627c12.497-12.497 12.497-32.758 0-45.255l-201.371-201.373h605.412c17.673 0 32-14.327 32-32s-14.327-32-32-32h-605.412l201.371-201.374c12.497-12.497 12.497-32.755 0-45.252s-32.757-12.497-45.254 0l-256 256c-12.497 12.497-12.497 32.755 0 45.252l256 256.001c12.497 12.497 32.756 12.497 45.254 0z" />
<glyph unicode="&#xe924;" glyph-name="arrow-right-down16" d="M233.372 726.628c12.497 12.497 32.758 12.497 45.255 0l457.373-457.373v306.746c0 17.673 14.33 32 32 32s32-14.327 32-32v-384c0-17.67-14.33-32-32-32h-384c-17.673 0-32 14.33-32 32s14.327 32 32 32h306.746l-457.373 457.373c-12.497 12.497-12.497 32.758 0 45.255z" />
<glyph unicode="&#xe925;" glyph-name="arrow-right-down20" d="M233.373 726.627c12.496 12.497 32.758 12.497 45.255 0l457.373-457.372v306.744c0 17.673 14.326 32 32 32s32-14.327 32-32v-384c0-17.674-14.326-32-32-32h-384c-17.673 0-32 14.326-32 32s14.327 32 32 32h306.744l-457.372 457.373c-12.497 12.497-12.497 32.758 0 45.255z" />
<glyph unicode="&#xe926;" glyph-name="arrow-right-down24" d="M233.373 726.627c12.497 12.497 32.758 12.497 45.255 0l457.373-457.371v306.743c0 17.673 14.327 32 32 32s32-14.327 32-32v-384c0-17.673-14.327-32-32-32h-384c-17.673 0-32 14.327-32 32s14.327 32 32 32h306.743l-457.371 457.373c-12.497 12.497-12.497 32.758 0 45.255z" />
<glyph unicode="&#xe927;" glyph-name="arrow-right-up16" d="M384 672c-17.673 0-32 14.327-32 32s14.327 32 32 32h384c17.67 0 32-14.327 32-32v-384c0-17.67-14.33-32-32-32s-32 14.33-32 32v306.745l-457.373-457.369c-12.497-12.499-32.758-12.499-45.255 0-12.497 12.493-12.497 32.755 0 45.248l457.373 457.376h-306.746z" />
<glyph unicode="&#xe928;" glyph-name="arrow-right-up20" d="M384 672c-17.673 0-32 14.327-32 32s14.327 32 32 32h384c17.674 0 32-14.327 32-32v-384c0-17.674-14.326-32-32-32s-32 14.326-32 32v306.745l-457.373-457.371c-12.497-12.498-32.758-12.498-45.255 0s-12.497 32.753 0 45.251l457.372 457.375h-306.744z" />
<glyph unicode="&#xe929;" glyph-name="arrow-right-up24" d="M384 672c-17.673 0-32 14.327-32 32s14.327 32 32 32h384c17.673 0 32-14.327 32-32v-384c0-17.673-14.327-32-32-32s-32 14.327-32 32v306.745l-457.373-457.371c-12.497-12.497-32.758-12.497-45.255 0s-12.497 32.755 0 45.252l457.371 457.374h-306.743z" />
<glyph unicode="&#xe92a;" glyph-name="arrow-right16" d="M574.697 726.628c12.497 12.497 32.755 12.497 45.252 0l256-256.001c12.499-12.497 12.499-32.756 0-45.252l-256-255.998c-12.497-12.499-32.755-12.499-45.252 0-12.497 12.493-12.497 32.755 0 45.248l201.367 201.376h-605.408c-17.673 0-32 14.328-32 32s14.327 32 32 32h605.408l-201.367 201.373c-12.497 12.497-12.497 32.758 0 45.255z" />
<glyph unicode="&#xe92b;" glyph-name="arrow-right20" d="M574.715 726.627c12.498 12.497 32.758 12.497 45.251 0l256-256.001c12.498-12.497 12.498-32.754 0-45.252l-256-256c-12.493-12.498-32.753-12.498-45.251 0s-12.498 32.753 0 45.251l201.37 201.375h-605.409c-17.673 0-32 14.326-32 32s14.327 32 32 32h605.409l-201.37 201.373c-12.498 12.497-12.498 32.758 0 45.255z" />
<glyph unicode="&#xe92c;" glyph-name="arrow-right24" d="M574.707 726.627c12.497 12.497 32.755 12.497 45.252 0l256-256.001c12.497-12.497 12.497-32.755 0-45.252l-256-256c-12.497-12.497-32.755-12.497-45.252 0s-12.497 32.755 0 45.252l201.37 201.374h-605.41c-17.673 0-32 14.327-32 32s14.327 32 32 32h605.41l-201.37 201.373c-12.497 12.497-12.497 32.758 0 45.255z" />
<glyph unicode="&#xe92d;" glyph-name="arrow-up16" d="M489.373 811.971c12.497 12.497 32.756 12.497 45.252 0l255.998-256c12.499-12.497 12.499-32.756 0-45.254-12.493-12.497-32.755-12.497-45.248 0l-201.376 201.372v-605.414c0-17.67-14.328-32-32-32s-32 14.33-32 32v605.414l-201.373-201.372c-12.497-12.497-32.758-12.497-45.255 0s-12.497 32.757 0 45.254l256.001 256z" />
<glyph unicode="&#xe92e;" glyph-name="arrow-up20" d="M489.374 811.953c12.497 12.496 32.754 12.496 45.252 0l256-256c12.498-12.497 12.498-32.757 0-45.254s-32.753-12.497-45.251 0l-201.375 201.371v-605.41c0-17.674-14.326-32-32-32s-32 14.326-32 32v605.41l-201.373-201.371c-12.497-12.497-32.758-12.497-45.255 0s-12.497 32.757 0 45.254l256.001 256z" />
<glyph unicode="&#xe92f;" glyph-name="arrow-up24" d="M489.374 811.961c12.497 12.497 32.755 12.497 45.252 0l256-256c12.497-12.497 12.497-32.756 0-45.254s-32.755-12.497-45.252 0l-201.374 201.371v-605.412c0-17.673-14.327-32-32-32s-32 14.327-32 32v605.412l-201.373-201.371c-12.497-12.497-32.758-12.497-45.255 0s-12.497 32.757 0 45.254l256.001 256z" />
<glyph unicode="&#xe930;" glyph-name="bag-Fill16" d="M237.818 759.841c-35.549-29.503-44.913-79.442-63.639-179.32l-32-170.668c-26.333-140.445-39.501-210.666-1.112-256.919 38.387-46.259 109.834-46.259 252.727-46.259h236.41c142.897 0 214.34 0 252.728 46.259 38.387 46.253 25.222 116.474-1.107 256.919l-32 170.668c-18.733 99.878-28.096 149.816-63.642 179.32-35.552 29.503-86.362 29.503-187.979 29.503h-172.41c-101.618 0-152.427 0-187.976-29.503zM421.471 629.341c13.196-37.329 48.797-63.997 90.546-63.997s77.35 26.668 90.543 63.997c5.892 16.663 24.175 25.397 40.838 19.507 16.659-5.89 25.395-24.172 19.507-40.835-21.952-62.1-81.176-106.669-150.889-106.669-69.717 0-128.939 44.569-150.888 106.669-5.89 16.662 2.844 34.945 19.507 40.835s34.945-2.844 40.835-19.507z" />
<glyph unicode="&#xe931;" glyph-name="bag-Fill20" d="M237.83 759.822c-35.549-29.503-44.913-79.442-63.639-179.319l-32-170.668c-26.334-140.447-39.501-210.668-1.113-256.922s109.834-46.254 252.727-46.254h236.41c142.894 0 214.339 0 252.728 46.254 38.385 46.254 25.226 116.475-1.111 256.922l-32 170.668c-18.729 99.877-28.088 149.816-63.642 179.319-35.548 29.502-86.354 29.502-187.976 29.502h-172.41c-101.618 0-152.427 0-187.976-29.502zM421.483 629.322c13.196-37.329 48.797-63.997 90.548-63.997 41.748 0 77.348 26.668 90.542 63.997 5.893 16.663 24.177 25.397 40.837 19.507s25.395-24.172 19.507-40.835c-21.949-62.1-81.172-106.67-150.886-106.67-69.719 0-128.941 44.57-150.889 106.67-5.89 16.663 2.844 34.945 19.507 40.835s34.946-2.844 40.835-19.507z" />
<glyph unicode="&#xe932;" glyph-name="bag-Fill24" d="M237.818 759.831c-35.549-29.503-44.913-79.442-63.639-179.319l-32-170.668c-26.333-140.446-39.5-210.667-1.112-256.922s109.834-46.255 252.727-46.255h236.41c142.895 0 214.34 0 252.727 46.255s25.225 116.476-1.109 256.922l-32 170.668c-18.731 99.878-28.092 149.816-63.642 179.319s-86.357 29.503-187.977 29.503h-172.41c-101.618 0-152.427 0-187.976-29.503zM421.471 629.33c13.196-37.329 48.797-63.997 90.546-63.997s77.35 26.668 90.543 63.997c5.892 16.663 24.175 25.397 40.836 19.507s25.395-24.172 19.507-40.835c-21.948-62.1-81.173-106.67-150.886-106.67-69.717 0-128.939 44.569-150.888 106.67-5.89 16.663 2.844 34.945 19.507 40.835s34.945-2.844 40.835-19.507z" />
<glyph unicode="&#xe933;" glyph-name="bag16" d="M380.644 648.848c-16.662-5.89-25.396-24.172-19.507-40.835 21.949-62.1 81.173-106.669 150.886-106.669 69.718 0 128.937 44.569 150.889 106.669 5.888 16.662-2.842 34.945-19.507 40.835s-34.947-2.844-40.835-19.507c-13.192-37.329-48.797-63.997-90.547-63.997s-77.35 26.668-90.544 63.997c-5.89 16.663-24.172 25.397-40.835 19.507zM527.4 725.344c69.367 0 115.537-0.114 150.507-4.435 33.21-4.103 48.518-11.236 59.258-20.152s20.57-22.645 30.726-54.529c10.688-33.572 19.309-78.93 32.096-147.108 17.92-95.569 29.933-160.482 32.064-209.373 2.061-47.13-5.837-67.168-16.928-80.525s-29.325-24.813-76.026-31.482c-48.448-6.912-114.46-7.066-211.697-7.066h-30.771c-97.232 0-163.247 0.154-211.695 7.066-46.7 6.669-64.936 18.125-76.024 31.482s-18.986 33.395-16.929 80.525c2.134 48.892 14.148 113.805 32.067 209.373 12.784 68.179 21.404 113.537 32.094 147.108 10.153 31.884 19.985 45.614 30.728 54.529s26.049 16.049 59.258 20.152c34.967 4.321 81.134 4.435 150.502 4.435h30.771zM245.997 750.007c-47.398-39.338-59.884-105.923-84.852-239.093-35.112-187.26-52.667-280.892-1.484-342.562 51.184-61.677 146.446-61.677 336.968-61.677h30.771c190.526 0 285.784 0 336.971 61.677 51.187 61.67 33.626 155.302-1.485 342.562-24.966 133.171-37.453 199.756-84.851 239.093s-115.142 39.337-250.635 39.337h-30.771c-135.489 0-203.234 0-250.632-39.337z" />
<glyph unicode="&#xe934;" glyph-name="bag20" d="M380.638 648.829c-16.663-5.89-25.396-24.172-19.507-40.835 21.949-62.1 81.173-106.67 150.884-106.67 69.719 0 128.942 44.57 150.892 106.67 5.888 16.663-2.847 34.945-19.507 40.835-16.666 5.89-34.949-2.844-40.837-19.507-13.189-37.329-48.799-63.997-90.547-63.997s-77.349 26.668-90.543 63.997c-5.89 16.663-24.172 25.397-40.835 19.507zM527.396 725.325c69.366 0 115.533-0.114 150.502-4.434 33.208-4.103 48.517-11.236 59.259-20.152 10.742-8.914 20.572-22.645 30.725-54.529 10.691-33.572 19.313-78.93 32.097-147.108 17.92-95.569 29.932-160.481 32.067-209.372 2.058-47.13-5.842-67.169-16.932-80.527-11.085-13.358-29.322-24.817-76.022-31.478-48.445-6.912-114.463-7.066-211.697-7.066h-30.773c-97.232 0-163.246 0.154-211.695 7.066-46.7 6.661-64.936 18.12-76.024 31.478s-18.985 33.398-16.928 80.527c2.134 48.891 14.148 113.802 32.067 209.372 12.784 68.178 21.404 113.537 32.095 147.108 10.153 31.883 19.985 45.614 30.727 54.529s26.049 16.049 59.257 20.152c34.967 4.32 81.135 4.434 150.502 4.434h30.773zM245.99 749.988c-47.398-39.337-59.883-105.923-84.853-239.093-35.111-187.26-52.667-280.889-1.483-342.56 51.184-61.676 146.446-61.676 336.968-61.676h30.773c190.52 0 285.783 0 336.973 61.676 51.18 61.67 33.623 155.3-1.485 342.56-24.97 133.17-37.453 199.756-84.854 239.093-47.396 39.337-115.144 39.337-250.634 39.337h-30.773c-135.489 0-203.234 0-250.632-39.337z" />
<glyph unicode="&#xe935;" glyph-name="bag24" d="M380.634 648.838c-16.663-5.89-25.396-24.172-19.507-40.835 21.949-62.1 81.173-106.67 150.886-106.67 69.717 0 128.939 44.569 150.891 106.67 5.888 16.663-2.846 34.945-19.507 40.835-16.666 5.89-34.948-2.844-40.836-19.507-13.193-37.329-48.798-63.997-90.547-63.997s-77.35 26.668-90.544 63.997c-5.89 16.663-24.172 25.397-40.835 19.507zM527.39 725.333c69.367 0 115.537-0.114 150.507-4.434 33.207-4.103 48.516-11.236 59.255-20.151 10.743-8.915 20.574-22.645 30.729-54.529 10.688-33.572 19.311-78.93 32.094-147.108 17.92-95.569 29.935-160.482 32.068-209.374 2.057-47.13-5.841-67.166-16.93-80.525s-29.325-24.815-76.023-31.479c-48.448-6.912-114.462-7.066-211.699-7.066h-30.771c-97.232 0-163.247 0.154-211.695 7.066-46.7 6.665-64.936 18.121-76.024 31.479s-18.985 33.395-16.928 80.525c2.134 48.892 14.148 113.805 32.067 209.374 12.784 68.178 21.404 113.536 32.094 147.108 10.153 31.884 19.985 45.614 30.727 54.529s26.049 16.049 59.258 20.151c34.967 4.32 81.135 4.434 150.502 4.434h30.771zM245.986 749.996c-47.398-39.337-59.883-105.923-84.852-239.093-35.111-187.26-52.667-280.892-1.483-342.562 51.184-61.675 146.446-61.675 336.968-61.675h30.771c190.524 0 285.786 0 336.973 61.675 51.183 61.67 33.626 155.302-1.485 342.562-24.969 133.17-37.453 199.756-84.851 239.093s-115.145 39.337-250.637 39.337h-30.771c-135.489 0-203.234 0-250.633-39.337z" />
<glyph unicode="&#xe936;" glyph-name="bell18" d="M512.010 906.656c-182.62 0-330.665-148.044-330.665-330.666v-30.042c0-29.734-8.801-58.808-25.295-83.546l-49.007-73.51c-56.879-85.321-13.457-201.289 85.47-228.265 32.239-8.794 64.751-16.23 97.451-22.317l0.081-0.218c32.81-87.546 120.504-148.768 221.965-148.768s189.155 61.222 221.967 148.768l0.077 0.218c32.704 6.086 65.216 13.523 97.459 22.317 98.925 26.976 142.349 142.944 85.466 228.265l-49.005 73.51c-16.493 24.738-25.299 53.811-25.299 83.546v30.042c0 182.622-148.045 330.666-330.665 330.666zM656.070 126.413c-95.697-11.437-192.427-11.43-288.124 0 30.333-43.584 83.094-73.088 144.064-73.088 60.966 0 113.728 29.504 144.060 73.088zM245.345 575.99c0 147.276 119.391 266.666 266.665 266.666 147.279 0 266.665-119.391 266.665-266.666v-30.042c0-42.372 12.544-83.793 36.045-119.048l49.011-73.511c32.646-48.966 7.725-115.533-49.062-131.021-198.151-54.042-407.162-54.042-605.317 0-56.782 15.488-81.705 82.054-49.058 131.021l49.007 73.511c23.503 35.255 36.045 76.676 36.045 119.048v30.042z" />
<glyph unicode="&#xe937;" glyph-name="bell20" d="M511.992 906.675c-182.621 0-330.665-148.045-330.665-330.667v-30.042c0-29.734-8.802-58.807-25.296-83.546l-49.008-73.511c-56.878-85.32-13.456-201.288 85.471-228.265 32.239-8.796 64.751-16.23 97.451-22.318l0.081-0.215c32.81-87.547 120.503-148.772 221.966-148.772 101.461 0 189.156 61.225 221.965 148.772l0.082 0.215c32.696 6.088 65.213 13.522 97.454 22.318 98.929 26.977 142.346 142.945 85.468 228.265l-49.004 73.511c-16.497 24.738-25.298 53.811-25.298 83.546v30.042c0 182.622-148.045 330.667-330.668 330.667zM656.051 126.428c-95.698-11.433-192.426-11.428-288.124 0.005 30.334-43.587 83.094-73.093 144.065-73.093 60.967 0 113.729 29.507 144.059 73.088zM245.327 576.008c0 147.276 119.391 266.667 266.665 266.667s266.668-119.391 266.668-266.667v-30.042c0-42.372 12.544-83.793 36.045-119.051l49.004-73.508c32.65-48.968 7.731-115.533-49.055-131.021-198.154-54.042-407.165-54.042-605.32 0-56.782 15.488-81.705 82.053-49.058 131.021l49.007 73.508c23.503 35.258 36.045 76.679 36.045 119.051v30.042z" />
<glyph unicode="&#xe938;" glyph-name="bell24" d="M512 906.667c-182.621 0-330.665-148.044-330.665-330.667v-30.042c0-29.734-8.802-58.807-25.296-83.546l-49.007-73.51c-56.879-85.321-13.456-201.289 85.47-228.267 32.239-8.794 64.751-16.23 97.451-22.315l0.081-0.218c32.81-87.548 120.503-148.77 221.966-148.77s189.154 61.222 221.965 148.77l0.081 0.218c32.7 6.084 65.216 13.521 97.455 22.315 98.927 26.978 142.349 142.946 85.47 228.267l-49.007 73.51c-16.495 24.738-25.297 53.811-25.297 83.546v30.042c0 182.622-148.045 330.667-330.667 330.667zM656.060 126.421c-95.697-11.435-192.427-11.43-288.124 0.004 30.334-43.588 83.094-73.092 144.064-73.092 60.966 0 113.728 29.504 144.060 73.088zM245.335 576c0 147.276 119.391 266.667 266.665 266.667 147.277 0 266.667-119.391 266.667-266.667v-30.042c0-42.372 12.544-83.793 36.045-119.049l49.007-73.51c32.649-48.969 7.727-115.533-49.058-131.021-198.153-54.042-407.164-54.042-605.319 0-56.782 15.488-81.705 82.052-49.058 131.021l49.007 73.51c23.503 35.255 36.045 76.676 36.045 119.049v30.042z" />
<glyph unicode="&#xe939;" glyph-name="calendar16" d="M725.325 362.667c23.565 0 42.662 19.101 42.662 42.666s-19.098 42.667-42.662 42.667c-23.565 0-42.669-19.102-42.669-42.667s19.104-42.666 42.669-42.666zM725.325 192.013c23.565 0 42.662 19.098 42.662 42.662s-19.098 42.669-42.662 42.669c-23.565 0-42.669-19.104-42.669-42.669s19.104-42.662 42.669-42.662zM554.677 405.333c0-23.565-19.102-42.666-42.667-42.666s-42.666 19.101-42.666 42.666c0 23.565 19.101 42.667 42.666 42.667s42.667-19.102 42.667-42.667zM554.677 234.675c0-23.565-19.102-42.662-42.667-42.662s-42.666 19.098-42.666 42.662c0 23.565 19.101 42.669 42.666 42.669s42.667-19.104 42.667-42.669zM298.667 362.667c23.564 0 42.666 19.101 42.666 42.666s-19.102 42.667-42.666 42.667c-23.564 0-42.667-19.102-42.667-42.667s19.103-42.666 42.667-42.666zM298.667 192.013c23.564 0 42.666 19.098 42.666 42.662s-19.102 42.669-42.666 42.669c-23.564 0-42.667-19.104-42.667-42.669s19.103-42.662 42.667-42.662zM298.677 885.344c-17.673 0-32-14.327-32-32v-35.29c-11.091-0.845-21.594-1.908-31.532-3.244-50.023-6.726-90.512-20.896-122.442-52.826s-46.1-72.419-52.826-122.442c-6.535-48.606-6.535-110.712-6.534-189.125v-90.146c-0.001-78.415-0.001-140.52 6.534-189.122 6.725-50.022 20.895-90.515 52.826-122.445s72.419-46.099 122.442-52.826c48.606-6.534 110.714-6.534 189.124-6.534h175.484c78.409 0 140.515 0 189.123 6.534 50.022 6.726 90.509 20.896 122.445 52.826 31.923 31.93 46.093 72.422 52.826 122.445 6.528 48.602 6.528 110.714 6.528 189.122v90.15c0 78.408 0 140.515-6.528 189.121-6.733 50.024-20.902 90.512-52.826 122.442-31.936 31.93-72.422 46.1-122.445 52.826-9.939 1.336-20.442 2.399-31.533 3.244v35.29c0 17.673-14.33 32-32 32s-32-14.327-32-32v-32.543c-28.243 0.543-59.366 0.543-93.594 0.543h-175.485c-34.225 0-65.343 0-93.588-0.543v32.543c0 17.673-14.327 32-32 32zM243.674 751.38c43.846 5.896 101.646 5.964 183.004 5.964h170.667c81.357 0 139.155-0.068 183.008-5.964 42.918-5.771 67.654-16.594 85.709-34.651 18.061-18.057 28.883-42.789 34.65-85.715 0.979-7.27 1.798-14.924 2.483-23.004h-782.365c0.684 8.081 1.501 15.734 2.478 23.004 5.771 42.926 16.595 67.658 34.652 85.715s42.788 28.88 85.715 34.651zM117.344 448.010c0 36.438 0.013 68.152 0.558 96h788.216c0.544-27.848 0.557-59.562 0.557-96v-85.333c0-81.359-0.064-139.157-5.965-183.004-5.766-42.925-16.589-67.661-34.65-85.715-18.054-18.054-42.79-28.883-85.709-34.65-43.853-5.894-101.651-5.965-183.008-5.965h-170.667c-81.357 0-139.157 0.070-183.004 5.965-42.927 5.766-67.658 16.595-85.715 34.65s-28.881 42.79-34.652 85.715c-5.895 43.846-5.963 101.645-5.963 183.004v85.333z" />
<glyph unicode="&#xe93a;" glyph-name="calendar20" d="M725.34 362.665c23.567 0 42.67 19.103 42.67 42.67 0 23.562-19.103 42.665-42.67 42.665-23.562 0-42.665-19.103-42.665-42.665 0-23.567 19.103-42.67 42.665-42.67zM725.34 191.99c23.567 0 42.67 19.103 42.67 42.67 0 23.562-19.103 42.665-42.67 42.665-23.562 0-42.665-19.103-42.665-42.665 0-23.567 19.103-42.67 42.665-42.67zM554.66 405.335c0-23.567-19.103-42.67-42.668-42.67s-42.667 19.103-42.667 42.67c0 23.562 19.102 42.665 42.667 42.665s42.668-19.103 42.668-42.665zM554.66 234.66c0-23.567-19.103-42.67-42.668-42.67s-42.667 19.103-42.667 42.67c0 23.562 19.102 42.665 42.667 42.665s42.668-19.103 42.668-42.665zM298.666 362.665c23.564 0 42.667 19.103 42.667 42.67 0 23.562-19.103 42.665-42.667 42.665s-42.666-19.103-42.666-42.665c0-23.567 19.103-42.67 42.666-42.67zM298.666 191.99c23.564 0 42.667 19.103 42.667 42.67 0 23.562-19.103 42.665-42.667 42.665s-42.666-19.103-42.666-42.665c0-23.567 19.103-42.67 42.666-42.67zM298.658 885.325c-17.673 0-32-14.327-32-32v-35.289c-11.091-0.845-21.594-1.908-31.532-3.244-50.023-6.726-90.512-20.896-122.442-52.826s-46.1-72.419-52.826-122.442c-6.535-48.606-6.535-110.712-6.534-189.125v-90.145c-0.001-78.413-0.001-140.518 6.534-189.128 6.725-50.022 20.896-90.511 52.826-122.445 31.93-31.923 72.419-46.095 122.442-52.823 48.606-6.533 110.714-6.533 189.125-6.533h175.485c78.408 0 140.513 0 189.117 6.533 50.022 6.728 90.516 20.9 122.445 52.823 31.928 31.933 46.1 72.422 52.828 122.445 6.533 48.609 6.533 110.72 6.533 189.128v90.149c0 78.409 0 140.515-6.533 189.121-6.728 50.023-20.9 90.512-52.828 122.442s-72.422 46.1-122.445 52.826c-9.933 1.336-20.439 2.399-31.529 3.244v35.289c0 17.673-14.326 32-32 32s-32-14.327-32-32v-32.543c-28.247 0.543-59.366 0.543-93.594 0.543h-175.485c-34.224 0.001-65.342 0.001-93.587-0.543v32.543c0 17.673-14.327 32-32 32zM243.655 751.362c43.847 5.895 101.646 5.963 183.004 5.963h170.666c81.357 0 139.156-0.068 183.004-5.963 42.926-5.771 67.661-16.594 85.714-34.652 18.058-18.057 28.882-42.788 34.652-85.715 0.978-7.27 1.797-14.923 2.478-23.004h-782.363c0.684 8.080 1.501 15.734 2.478 23.004 5.771 42.927 16.594 67.658 34.651 85.715s42.789 28.88 85.715 34.652zM117.325 447.99c0 36.439 0.014 68.153 0.559 96.002h788.218c0.543-27.849 0.558-59.563 0.558-96.002v-85.33c0-81.357-0.072-139.156-5.965-183.009-5.77-42.921-16.594-67.656-34.652-85.709-18.053-18.058-42.788-28.882-85.714-34.652-43.848-5.898-101.647-5.965-183.004-5.965h-170.666c-81.358 0-139.157 0.067-183.004 5.965-42.927 5.77-67.658 16.594-85.715 34.652-18.057 18.053-28.88 42.788-34.651 85.709-5.895 43.853-5.963 101.652-5.963 183.009v85.33z" />
<glyph unicode="&#xe93b;" glyph-name="calendar24" d="M725.333 362.667c23.565 0 42.667 19.102 42.667 42.667s-19.102 42.667-42.667 42.667c-23.565 0-42.667-19.102-42.667-42.667s19.102-42.667 42.667-42.667zM725.333 192c23.565 0 42.667 19.102 42.667 42.667s-19.102 42.667-42.667 42.667c-23.565 0-42.667-19.102-42.667-42.667s19.102-42.667 42.667-42.667zM554.667 405.333c0-23.565-19.102-42.667-42.667-42.667s-42.667 19.102-42.667 42.667c0 23.565 19.102 42.667 42.667 42.667s42.667-19.102 42.667-42.667zM554.667 234.667c0-23.565-19.102-42.667-42.667-42.667s-42.667 19.102-42.667 42.667c0 23.565 19.102 42.667 42.667 42.667s42.667-19.102 42.667-42.667zM298.667 362.667c23.564 0 42.667 19.102 42.667 42.667s-19.102 42.667-42.667 42.667c-23.564 0-42.667-19.102-42.667-42.667s19.103-42.667 42.667-42.667zM298.667 192c23.564 0 42.667 19.102 42.667 42.667s-19.102 42.667-42.667 42.667c-23.564 0-42.667-19.102-42.667-42.667s19.103-42.667 42.667-42.667zM298.667 885.333c-17.673 0-32-14.327-32-32v-35.289c-11.091-0.846-21.594-1.908-31.532-3.244-50.023-6.726-90.512-20.896-122.442-52.826s-46.1-72.419-52.826-122.442c-6.535-48.606-6.535-110.712-6.534-189.125v-90.146c-0.001-78.413-0.001-140.518 6.534-189.124 6.725-50.022 20.896-90.513 52.826-122.445 31.93-31.927 72.419-46.097 122.442-52.826 48.606-6.532 110.714-6.532 189.125-6.532h175.484c78.409 0 140.514 0 189.12 6.532 50.022 6.729 90.513 20.898 122.445 52.826 31.927 31.932 46.097 72.422 52.826 122.445 6.532 48.606 6.532 110.716 6.532 189.124v90.15c0 78.409 0 140.515-6.532 189.121-6.729 50.024-20.898 90.512-52.826 122.442-31.932 31.93-72.422 46.1-122.445 52.826-9.937 1.336-20.442 2.399-31.531 3.244v35.289c0 17.673-14.327 32-32 32s-32-14.327-32-32v-32.543c-28.245 0.543-59.366 0.543-93.594 0.543h-175.485c-34.224 0-65.342 0-93.588-0.543v32.543c0 17.673-14.327 32-32 32zM243.663 751.37c43.847 5.895 101.646 5.963 183.004 5.963h170.667c81.357 0 139.157-0.068 183.006-5.963 42.923-5.771 67.657-16.594 85.713-34.651s28.881-42.789 34.65-85.715c0.977-7.27 1.796-14.923 2.479-23.004h-782.362c0.684 8.081 1.501 15.734 2.478 23.004 5.771 42.927 16.594 67.658 34.651 85.715s42.789 28.88 85.715 34.651zM117.333 448c0 36.437 0.014 68.151 0.559 96h788.216c0.546-27.849 0.559-59.563 0.559-96v-85.333c0-81.357-0.068-139.157-5.965-183.006-5.769-42.923-16.593-67.657-34.65-85.713s-42.79-28.881-85.713-34.65c-43.849-5.897-101.649-5.965-183.006-5.965h-170.667c-81.358 0-139.157 0.068-183.004 5.965-42.927 5.769-67.658 16.593-85.715 34.65s-28.88 42.79-34.651 85.713c-5.895 43.849-5.963 101.649-5.963 183.006v85.333z" />
<glyph unicode="&#xe93c;" glyph-name="call-chat-16" d="M970.669 661.323c0 135.494-109.843 245.333-245.338 245.333s-245.331-109.84-245.331-245.333c0-39.188 9.212-76.316 25.617-109.252 0.367-0.738 0.508-1.331 0.554-1.69 0.022-0.168 0.017-0.268 0.017-0.308l-12.698-47.448c-11.878-44.399 28.74-85.021 73.144-73.143l47.445 12.698c-0.060-0.017-0.038-0.004 0 0 0.043 0 0.141 0.004 0.312-0.017 0.358-0.043 0.951-0.188 1.69-0.555 32.936-16.405 70.063-25.617 109.25-25.617 135.494 0 245.338 109.841 245.338 245.333zM725.331 842.656c100.147 0 181.338-81.185 181.338-181.333s-81.19-181.333-181.338-181.333c-29.062 0-56.448 6.813-80.717 18.906-13.621 6.784-30.312 9.591-47.034 5.12l-40.354-10.799 10.794 40.356c4.476 16.722 1.664 33.411-5.12 47.032-12.087 24.272-18.901 51.654-18.901 80.719 0 100.148 81.186 181.333 181.331 181.333zM128.328 686.641c71.683 71.683 192.649 66.234 242.561-23.201l27.691-49.619c32.594-58.403 18.705-132.092-29.010-180.39-0.635-0.87-4.003-5.773-4.422-14.34-0.536-10.935 3.348-36.228 42.534-75.418 39.172-39.174 64.46-43.065 75.404-42.534 8.576 0.416 13.483 3.789 14.353 4.422 48.298 47.716 121.988 61.604 180.39 29.011l49.619-27.692c89.434-49.907 94.88-170.88 23.2-242.56-38.342-38.342-89.325-72.41-149.24-74.682-88.785-3.366-236.21 19.565-382.206 165.562s-168.924 293.416-165.559 382.202c2.272 59.912 36.34 110.895 74.683 149.238zM315.004 632.25c-25.558 45.796-94.238 56.317-141.42 9.135-33.082-33.082-54.588-69.596-55.984-106.408-2.807-74.040 15.473-203.14 146.86-334.53 131.386-131.379 260.484-149.664 334.527-146.854 36.813 1.395 73.327 22.899 106.409 55.981 47.181 47.187 36.659 115.866-9.139 141.421l-49.613 27.693c-30.867 17.222-74.225 11.347-104.659-19.085-2.987-2.989-22.020-20.742-55.787-22.387-34.573-1.683-76.416 13.85-123.769 61.203-47.369 47.37-62.897 89.226-61.204 123.799 1.654 33.771 19.412 52.783 22.384 55.757 30.435 30.434 36.312 73.791 19.086 104.657l-27.691 49.618z" />
<glyph unicode="&#xe93d;" glyph-name="call-chat-20" d="M970.665 661.342c0 135.494-109.839 245.334-245.33 245.334-135.501 0-245.335-109.839-245.335-245.334 0-39.188 9.212-76.316 25.617-109.253 0.367-0.738 0.508-1.331 0.555-1.689 0.021-0.168 0.017-0.269 0.017-0.309l-12.698-47.448c-11.878-44.399 28.739-85.020 73.144-73.142l47.442 12.698c-0.056-0.020-0.036-0.005 0 0 0.046 0 0.143 0 0.312-0.020 0.358-0.041 0.952-0.184 1.69-0.553 32.937-16.404 70.062-25.615 109.256-25.615 135.491 0 245.33 109.839 245.33 245.331zM725.335 842.675c100.147 0 181.33-81.186 181.33-181.334s-81.183-181.334-181.33-181.334c-29.066 0-56.448 6.814-80.722 18.906-13.619 6.784-30.31 9.592-47.032 5.12l-40.356-10.799 10.798 40.356c4.475 16.722 1.664 33.411-5.12 47.031-12.088 24.272-18.903 51.654-18.903 80.719 0 100.148 81.188 181.334 181.335 181.334zM128.31 686.628c71.683 71.683 192.649 66.233 242.561-23.201l27.691-49.618c32.594-58.403 18.704-132.092-29.010-180.391-0.635-0.87-4.003-5.77-4.423-14.341-0.536-10.936 3.348-36.229 42.535-75.418 39.172-39.173 64.46-43.064 75.404-42.532 8.576 0.415 13.483 3.789 14.353 4.424 48.299 47.713 121.986 61.604 180.39 29.010l49.618-27.694c89.431-49.91 94.884-170.88 23.204-242.56-38.349-38.344-89.329-72.412-149.243-74.68-88.786-3.369-236.209 19.564-382.204 165.56-145.997 145.997-168.925 293.416-165.559 382.202 2.272 59.913 36.341 110.896 74.683 149.239zM314.985 632.238c-25.559 45.796-94.238 56.317-141.421 9.135-33.081-33.081-54.588-69.596-55.984-106.408-2.807-74.039 15.473-203.138 146.86-334.527 131.386-131.384 260.483-149.668 334.528-146.857 36.813 1.393 73.329 22.902 106.404 55.982 47.181 47.186 36.659 115.866-9.134 141.42l-49.618 27.694c-30.863 17.224-74.22 11.346-104.653-19.087-2.99-2.985-22.021-20.741-55.789-22.385-34.573-1.684-76.416 13.85-123.769 61.204-47.369 47.37-62.897 89.226-61.204 123.796 1.654 33.771 19.412 52.783 22.384 55.757 30.435 30.434 36.312 73.791 19.086 104.657l-27.691 49.618z" />
<glyph unicode="&#xe93e;" glyph-name="call-chat-24" d="M970.667 661.333c0 135.494-109.841 245.333-245.333 245.333-135.497 0-245.333-109.839-245.333-245.333 0-39.188 9.212-76.316 25.617-109.253 0.367-0.738 0.508-1.331 0.555-1.689 0.021-0.169 0.017-0.268 0.017-0.309l-12.698-47.448c-11.878-44.399 28.74-85.022 73.143-73.143l47.445 12.698c-0.060-0.017-0.038-0.004 0 0 0.043 0 0.141 0.004 0.311-0.017 0.358-0.043 0.951-0.188 1.69-0.555 32.934-16.405 70.063-25.617 109.252-25.617 135.492 0 245.333 109.841 245.333 245.333zM725.333 842.667c100.147 0 181.333-81.186 181.333-181.333s-81.186-181.333-181.333-181.333c-29.065 0-56.448 6.814-80.721 18.906-13.619 6.784-30.31 9.591-47.031 5.12l-40.354-10.799 10.795 40.356c4.476 16.722 1.664 33.411-5.12 47.031-12.087 24.272-18.901 51.654-18.901 80.719 0 100.148 81.186 181.333 181.333 181.333zM128.318 686.641c71.683 71.683 192.649 66.234 242.561-23.201l27.691-49.618c32.593-58.403 18.704-132.093-29.010-180.392-0.635-0.87-4.003-5.773-4.423-14.34-0.535-10.935 3.348-36.228 42.535-75.418 39.171-39.172 64.46-43.063 75.404-42.534 8.576 0.418 13.483 3.789 14.353 4.425 48.299 47.714 121.988 61.602 180.39 29.009l49.617-27.691c89.434-49.911 94.882-170.88 23.202-242.56-38.345-38.345-89.327-72.414-149.239-74.684-88.785-3.366-236.21 19.563-382.206 165.559s-168.925 293.419-165.559 382.206c2.272 59.913 36.34 110.896 74.683 149.239zM314.993 632.25c-25.558 45.796-94.238 56.317-141.42 9.135-33.082-33.082-54.588-69.596-55.984-106.408-2.807-74.041 15.473-203.142 146.86-334.53 131.386-131.383 260.484-149.666 334.528-146.859 36.813 1.395 73.327 22.903 106.406 55.983 47.181 47.185 36.659 115.866-9.135 141.423l-49.617 27.691c-30.865 17.225-74.223 11.349-104.657-19.085-2.987-2.987-22.020-20.745-55.787-22.387-34.573-1.681-76.416 13.85-123.769 61.205-47.369 47.369-62.896 89.225-61.204 123.797 1.654 33.771 19.412 52.783 22.384 55.757 30.435 30.434 36.312 73.793 19.087 104.659l-27.691 49.618z" />
<glyph unicode="&#xe93f;" glyph-name="call-chat-Fill16" d="M725.331 447.99c117.824 0 213.338 95.512 213.338 213.333s-95.514 213.333-213.338 213.333c-117.818 0-213.331-95.512-213.331-213.333 0-34.127 8.013-66.381 22.259-94.986 3.789-7.601 5.048-16.29 2.854-24.493l-12.706-47.487c-5.517-20.617 13.341-39.476 33.958-33.958l47.488 12.706c8.205 2.193 16.892 0.934 24.495-2.854 28.602-14.246 60.858-22.259 94.982-22.259zM342.948 647.843l27.691-49.618c24.99-44.778 14.958-103.518-24.401-142.878 0 0-47.737-47.744 38.818-134.302 86.528-86.53 134.301-38.818 134.301-38.818 39.36 39.36 98.099 49.391 142.876 24.403l49.619-27.693c67.616-37.734 75.603-132.557 16.173-191.994-35.712-35.712-79.462-63.501-127.827-65.331-81.412-3.085-219.675 17.517-358.366 156.211-138.691 138.688-159.295 276.952-156.209 358.364 1.834 48.362 29.622 92.111 65.334 127.823 59.433 59.432 154.255 51.447 191.991-16.168z" />
<glyph unicode="&#xe940;" glyph-name="call-chat-Fill20" d="M725.335 448.008c117.816 0 213.33 95.513 213.33 213.334s-95.514 213.334-213.33 213.334c-117.821 0-213.335-95.513-213.335-213.334 0-34.126 8.013-66.382 22.257-94.986 3.789-7.602 5.048-16.29 2.857-24.494l-12.708-47.487c-5.514-20.617 13.343-39.475 33.961-33.958l47.488 12.706c8.202 2.193 16.891 0.934 24.494-2.854 28.605-14.246 60.861-22.259 94.986-22.259zM342.929 647.843l27.691-49.618c24.99-44.777 14.958-103.518-24.4-142.878 0 0-47.737-47.744 38.818-134.303 86.528-86.528 134.3-38.82 134.3-38.82 39.363 39.363 98.099 49.393 142.879 24.402l49.618-27.689c67.62-37.734 75.602-132.557 16.169-191.99-35.712-35.712-79.462-63.503-127.821-65.331-81.413-3.092-219.677 17.51-358.368 156.206-138.691 138.691-159.295 276.953-156.209 358.365 1.833 48.362 29.622 92.111 65.334 127.823 59.433 59.433 154.255 51.447 191.991-16.168z" />
<glyph unicode="&#xe941;" glyph-name="call-chat-Fill24" d="M725.333 448c117.82 0 213.333 95.513 213.333 213.333s-95.514 213.333-213.333 213.333c-117.82 0-213.333-95.513-213.333-213.333 0-34.127 8.013-66.382 22.259-94.986 3.789-7.601 5.047-16.29 2.854-24.494l-12.706-47.488c-5.517-20.617 13.342-39.475 33.958-33.958l47.488 12.706c8.205 2.193 16.892 0.934 24.495-2.854 28.604-14.246 60.86-22.259 94.985-22.259zM342.937 647.843l27.691-49.618c24.99-44.778 14.958-103.518-24.401-142.878 0 0-47.737-47.744 38.818-134.302 86.528-86.528 134.301-38.818 134.301-38.818 39.36 39.36 98.099 49.391 142.878 24.401l49.617-27.691c67.618-37.734 75.601-132.557 16.171-191.991-35.712-35.712-79.462-63.501-127.825-65.331-81.412-3.089-219.674 17.515-358.366 156.207s-159.296 276.954-156.209 358.366c1.833 48.362 29.621 92.111 65.334 127.823 59.433 59.433 154.255 51.447 191.991-16.168z" />
<glyph unicode="&#xe942;" glyph-name="camera16" d="M324.21 768.569c11.384 55.889 61.118 95.431 118.096 95.431h139.409c56.977 0 106.707-39.542 118.099-95.431 2.624-12.901 14.31-22.365 26.47-22.365h0.698l0.698-0.031c59.878-2.618 105.875-9.967 144.275-35.158 24.192-15.871 44.998-36.292 61.216-60.12 20.179-29.646 29.075-63.672 33.344-104.824 4.16-40.207 4.16-90.605 4.16-154.438v-3.631c0-63.834 0-114.229-4.16-154.434-4.269-41.152-13.165-75.181-33.344-104.826-16.218-23.827-37.024-44.25-61.216-60.122-30.016-19.693-64.429-28.371-106.163-32.544-40.864-4.077-92.115-4.077-157.21-4.077h-193.145c-65.092 0-116.348 0-157.21 4.077-41.735 4.173-76.145 12.851-106.159 32.544-24.193 15.872-45.005 36.294-61.22 60.122-20.176 29.645-29.074 63.674-33.338 104.826-4.166 40.205-4.166 90.6-4.165 154.434v3.631c0 63.834-0.001 114.231 4.165 154.438 4.264 41.152 13.162 75.178 33.338 104.824 16.216 23.828 37.027 44.248 61.22 60.12 38.399 25.191 84.393 32.54 144.273 35.158l0.699 0.031h0.699c12.155 0 23.844 9.464 26.472 22.365zM442.306 800c-27.353 0-50.229-18.901-55.384-44.205-8.348-40.982-44.682-73.207-88.402-73.588-57.54-2.556-88.361-9.625-111.347-24.704-17.218-11.295-31.962-25.784-43.417-42.615-11.782-17.313-18.863-39.453-22.589-75.412-3.784-36.525-3.824-83.608-3.824-149.656 0-66.052 0.040-113.135 3.824-149.66 3.726-35.955 10.806-58.099 22.589-75.411 11.455-16.832 26.199-31.322 43.417-42.618 17.814-11.686 40.61-18.688 77.414-22.368 37.31-3.725 85.372-3.763 152.607-3.763h189.629c67.236 0 115.3 0.038 152.612 3.763 36.8 3.68 59.597 10.682 77.414 22.368 17.216 11.296 31.962 25.786 43.411 42.618 11.782 17.312 18.861 39.456 22.592 75.411 3.782 36.525 3.821 83.608 3.821 149.66 0 66.048-0.038 113.131-3.821 149.656-3.731 35.959-10.81 58.099-22.592 75.412-11.45 16.831-26.195 31.32-43.411 42.615-22.989 15.079-53.811 22.148-111.347 24.704-43.725 0.381-80.058 32.605-88.404 73.588-5.158 25.304-28.031 44.205-55.385 44.205h-139.409zM512.010 501.333c-53.018 0-96-42.982-96-96s42.982-96.002 96-96.002c53.018 0 96 42.984 96 96.002s-42.982 96-96 96zM352.010 405.333c0 88.367 71.635 160 160 160 88.367 0 160.003-71.633 160.003-160s-71.636-160.002-160.003-160.002c-88.365 0-160 71.635-160 160.002zM736.013 533.333c0 17.673 14.323 32 32 32h42.662c17.677 0 32-14.327 32-32s-14.323-32-32-32h-42.662c-17.677 0-32 14.328-32 32z" />
<glyph unicode="&#xe943;" glyph-name="camera20" d="M324.191 768.569c11.384 55.888 61.118 95.431 118.096 95.431h139.411c56.975 0 106.706-39.543 118.093-95.431 2.632-12.902 14.316-22.366 26.47-22.366h0.701l0.701-0.030c59.878-2.618 105.871-9.967 144.271-35.158 24.192-15.871 45-36.292 61.22-60.12 20.178-29.646 29.071-63.671 33.336-104.824 4.168-40.207 4.168-90.605 4.168-154.438v-3.63c0-63.836 0-114.232-4.168-154.44-4.265-41.149-13.158-75.177-33.336-104.822-16.22-23.828-37.028-44.252-61.22-60.119-30.013-19.692-64.425-28.375-106.163-32.543-40.863-4.081-92.119-4.081-157.21-4.081h-193.145c-65.092 0-116.347 0-157.21 4.081-41.735 4.168-76.145 12.851-106.16 32.543-24.193 15.867-45.005 36.291-61.22 60.119-20.176 29.645-29.074 63.672-33.339 104.822-4.166 40.207-4.165 90.604-4.165 154.44v3.63c0 63.833-0.001 114.231 4.165 154.438 4.264 41.153 13.163 75.178 33.339 104.824 16.216 23.828 37.027 44.249 61.22 60.12 38.399 25.191 84.392 32.539 144.272 35.158l0.699 0.030h0.699c12.155 0 23.843 9.464 26.471 22.366zM442.287 800c-27.353 0-50.229-18.901-55.384-44.206-8.348-40.982-44.682-73.207-88.401-73.588-57.541-2.556-88.361-9.625-111.347-24.704-17.218-11.296-31.963-25.784-43.417-42.615-11.783-17.313-18.863-39.453-22.589-75.412-3.784-36.525-3.825-83.608-3.825-149.654 0-66.053 0.040-113.137 3.825-149.658 3.726-35.963 10.806-58.102 22.589-75.418 11.454-16.829 26.199-31.319 43.417-42.614 17.815-11.684 40.61-18.693 77.414-22.369 37.31-3.727 85.371-3.763 152.608-3.763h189.63c67.236 0 115.297 0.036 152.607 3.763 36.808 3.676 59.597 10.685 77.414 22.369 17.219 11.295 31.964 25.784 43.418 42.614 11.781 17.316 18.862 39.455 22.589 75.418 3.784 36.521 3.825 83.604 3.825 149.658 0 66.046-0.041 113.129-3.825 149.654-3.727 35.959-10.808 58.099-22.589 75.412-11.453 16.83-26.199 31.319-43.418 42.615-22.989 15.079-53.806 22.148-111.345 24.704-43.72 0.38-80.056 32.606-88.402 73.588-5.156 25.305-28.032 44.206-55.383 44.206h-139.411zM511.992 501.334c-53.018 0-96-42.982-96-95.998 0-53.018 42.982-96 96-96 53.016 0 95.998 42.982 95.998 96 0 53.016-42.982 95.998-95.998 95.998zM351.992 405.335c0 88.365 71.634 159.998 160 159.998 88.369 0 159.998-71.633 159.998-159.998s-71.629-160-159.998-160c-88.366 0-160 71.634-160 160zM735.99 533.334c0 17.673 14.331 32 32 32h42.67c17.669 0 32-14.327 32-32s-14.331-32-32-32h-42.67c-17.669 0-32 14.327-32 32z" />
<glyph unicode="&#xe944;" glyph-name="camera24" d="M324.2 768.569c11.384 55.888 61.118 95.431 118.096 95.431h139.409c56.977 0 106.709-39.543 118.097-95.431 2.628-12.902 14.315-22.366 26.47-22.366h0.7l0.7-0.030c59.878-2.618 105.873-9.967 144.273-35.158 24.192-15.872 45.001-36.292 61.218-60.12 20.177-29.646 29.073-63.671 33.34-104.824 4.164-40.207 4.164-90.605 4.164-154.438v-3.631c0-63.834 0-114.231-4.164-154.436-4.267-41.152-13.163-75.179-33.34-104.823-16.218-23.829-37.026-44.25-61.218-60.122-30.016-19.691-64.427-28.373-106.163-32.542-40.862-4.079-92.117-4.079-157.21-4.079h-193.145c-65.092 0-116.348 0-157.21 4.079-41.735 4.169-76.145 12.851-106.159 32.542-24.193 15.872-45.005 36.292-61.221 60.122-20.176 29.645-29.074 63.671-33.338 104.823-4.166 40.205-4.166 90.603-4.165 154.436v3.631c0 63.834-0.001 114.231 4.165 154.438 4.264 41.152 13.163 75.178 33.338 104.824 16.216 23.828 37.027 44.248 61.221 60.12 38.399 25.191 84.393 32.539 144.272 35.158l0.699 0.030h0.699c12.155 0 23.843 9.464 26.472 22.366zM442.295 800c-27.353 0-50.229-18.901-55.384-44.206-8.348-40.982-44.682-73.207-88.401-73.588-57.541-2.556-88.361-9.625-111.347-24.704-17.218-11.296-31.962-25.784-43.417-42.615-11.782-17.313-18.863-39.453-22.589-75.412-3.784-36.525-3.824-83.608-3.824-149.656 0-66.052 0.040-113.135 3.824-149.658 3.726-35.959 10.807-58.099 22.589-75.413 11.454-16.832 26.199-31.322 43.417-42.615 17.815-11.686 40.61-18.692 77.414-22.37 37.31-3.725 85.371-3.763 152.608-3.763h189.629c67.238 0 115.298 0.038 152.61 3.763 36.804 3.678 59.597 10.684 77.414 22.37 17.216 11.294 31.962 25.783 43.413 42.615 11.785 17.314 18.863 39.454 22.592 75.413 3.785 36.523 3.823 83.605 3.823 149.658 0 66.048-0.038 113.131-3.823 149.656-3.729 35.959-10.807 58.099-22.592 75.412-11.452 16.831-26.197 31.319-43.413 42.615-22.989 15.079-53.807 22.148-111.347 24.704-43.721 0.381-80.055 32.605-88.401 73.588-5.158 25.305-28.032 44.206-55.386 44.206h-139.409zM512 501.333c-53.018 0-96-42.982-96-96s42.982-96 96-96c53.018 0 96 42.982 96 96s-42.982 96-96 96zM352 405.333c0 88.367 71.634 160 160 160s160-71.633 160-160-71.633-160-160-160c-88.366 0-160 71.633-160 160zM736 533.333c0 17.673 14.327 32 32 32h42.667c17.673 0 32-14.327 32-32s-14.327-32-32-32h-42.667c-17.673 0-32 14.327-32 32z" />
<glyph unicode="&#xe945;" glyph-name="card16" d="M424.27 821.344h175.48c78.413 0.001 140.518 0.001 189.126-6.534 50.022-6.725 90.509-20.895 122.445-52.826 31.923-31.93 46.093-72.419 52.826-122.442 3.853-28.709 5.44-62.127 6.080-100.834 0.294-1.744 0.448-3.536 0.448-5.364 0-1.507-0.102-2.982-0.301-4.433 0.301-24.136 0.301-50.257 0.301-78.494v-4.813c0-78.413 0-140.516-6.528-189.124-6.733-50.022-20.902-90.515-52.826-122.445-31.936-31.93-72.422-46.099-122.445-52.826-48.608-6.534-110.714-6.534-189.126-6.534h-175.48c-78.411 0-140.518 0-189.124 6.534-50.023 6.726-90.512 20.896-122.442 52.826s-46.1 72.422-52.826 122.445c-6.535 48.608-6.535 110.711-6.534 189.124v4.813c0 28.237 0 54.358 0.305 78.494-0.201 1.451-0.305 2.931-0.305 4.433 0 1.828 0.153 3.619 0.448 5.363 0.646 38.707 2.226 72.125 6.086 100.835 6.725 50.024 20.895 90.512 52.826 122.442s72.419 46.1 122.442 52.826c48.606 6.536 110.713 6.535 189.124 6.534zM117.428 501.344c-0.081-16.572-0.084-34.308-0.084-53.334 0-81.357 0.068-139.159 5.963-183.005 5.771-42.925 16.595-67.654 34.652-85.715 18.057-18.054 42.788-28.877 85.715-34.65 43.846-5.894 101.646-5.965 183.004-5.965h170.667c81.357 0 139.155 0.070 183.008 5.965 42.918 5.773 67.654 16.595 85.709 34.65 18.061 18.061 28.883 42.79 34.65 85.715 5.901 43.846 5.965 101.649 5.965 183.005 0 19.025 0 36.762-0.083 53.334h-789.164zM905.562 565.344c-0.832 25.034-2.291 46.662-4.851 65.67-5.766 42.926-16.589 67.658-34.65 85.715-18.054 18.057-42.79 28.88-85.709 34.651-43.853 5.896-101.651 5.964-183.008 5.964h-170.667c-81.357 0-139.157-0.068-183.004-5.964-42.927-5.771-67.658-16.594-85.715-34.651s-28.881-42.789-34.652-85.715c-2.556-19.008-4.016-40.637-4.851-65.67h787.105zM224.010 277.344c0-17.67 14.327-32 32-32h170.667c17.672 0 32 14.33 32 32s-14.328 32-32 32h-170.667c-17.673 0-32-14.33-32-32zM501.344 277.344c0-17.67 14.327-32 32-32h64c17.672 0 32 14.33 32 32s-14.328 32-32 32h-64c-17.673 0-32-14.33-32-32z" />
<glyph unicode="&#xe946;" glyph-name="card20" d="M424.251 821.325h175.48c78.413 0.001 140.518 0.002 189.123-6.534 50.022-6.725 90.516-20.896 122.445-52.826s46.1-72.419 52.828-122.442c3.855-28.709 5.437-62.128 6.083-100.834 0.297-1.744 0.451-3.536 0.451-5.364 0-1.506-0.102-2.982-0.302-4.433 0.302-24.137 0.302-50.257 0.302-78.494v-4.815c0-78.413 0-140.518-6.533-189.123-6.728-50.022-20.9-90.511-52.828-122.445-31.928-31.928-72.422-46.095-122.445-52.823-48.604-6.533-110.71-6.533-189.123-6.533h-175.48c-78.411 0-140.518 0-189.125 6.533-50.023 6.728-90.512 20.895-122.442 52.823-31.93 31.933-46.1 72.422-52.826 122.445-6.535 48.604-6.535 110.71-6.534 189.123v4.815c0 28.237 0 54.357 0.305 78.494-0.201 1.45-0.305 2.931-0.305 4.433 0 1.828 0.154 3.62 0.448 5.364 0.646 38.707 2.226 72.125 6.086 100.835 6.725 50.023 20.896 90.512 52.826 122.442s72.419 46.1 122.442 52.826c48.606 6.535 110.713 6.535 189.124 6.534zM117.41 501.325c-0.081-16.571-0.085-34.308-0.085-53.335 0-81.357 0.068-139.156 5.963-183.004 5.771-42.921 16.594-67.656 34.651-85.714 18.057-18.053 42.789-28.882 85.715-34.647 43.847-5.898 101.646-5.965 183.004-5.965h170.666c81.357 0 139.156 0.067 183.004 5.965 42.926 5.765 67.661 16.594 85.714 34.647 18.058 18.058 28.882 42.793 34.652 85.714 5.893 43.848 5.965 101.647 5.965 183.004 0 19.027-0.005 36.764-0.087 53.335h-789.163zM905.544 565.325c-0.829 25.034-2.294 46.663-4.849 65.671-5.77 42.927-16.594 67.658-34.652 85.715-18.053 18.057-42.788 28.88-85.714 34.652-43.848 5.895-101.647 5.963-183.004 5.963h-170.666c-81.358 0-139.157-0.068-183.004-5.963-42.927-5.771-67.658-16.594-85.715-34.652s-28.88-42.788-34.651-85.715c-2.555-19.007-4.016-40.636-4.851-65.671h787.106zM223.992 277.325c0-17.674 14.327-32 32-32h170.666c17.673 0 32 14.326 32 32s-14.327 32-32 32h-170.666c-17.673 0-32-14.326-32-32zM501.325 277.325c0-17.674 14.326-32 32-32h64c17.674 0 32 14.326 32 32s-14.326 32-32 32h-64c-17.674 0-32-14.326-32-32z" />
<glyph unicode="&#xe947;" glyph-name="card24" d="M424.259 821.333h175.48c78.413 0.001 140.518 0.001 189.124-6.534 50.022-6.725 90.513-20.896 122.445-52.826 31.927-31.93 46.097-72.419 52.826-122.442 3.857-28.709 5.44-62.128 6.084-100.834 0.294-1.744 0.448-3.536 0.448-5.364 0-1.506-0.102-2.982-0.303-4.433 0.303-24.137 0.303-50.257 0.303-78.494v-4.813c0-78.413 0-140.518-6.532-189.124-6.729-50.022-20.898-90.513-52.826-122.445-31.932-31.927-72.422-46.097-122.445-52.826-48.606-6.532-110.711-6.532-189.124-6.532h-175.48c-78.411 0-140.518 0-189.125 6.532-50.023 6.729-90.512 20.898-122.442 52.826-31.93 31.932-46.1 72.422-52.826 122.445-6.535 48.606-6.535 110.711-6.534 189.124v4.813c0 28.237 0 54.357 0.305 78.494-0.201 1.451-0.305 2.931-0.305 4.433 0 1.828 0.153 3.619 0.448 5.364 0.646 38.706 2.226 72.125 6.086 100.835 6.725 50.023 20.896 90.512 52.826 122.442s72.419 46.1 122.442 52.826c48.606 6.535 110.713 6.535 189.124 6.534zM117.418 501.333c-0.081-16.572-0.085-34.308-0.085-53.333 0-81.357 0.068-139.157 5.963-183.006 5.771-42.923 16.594-67.657 34.651-85.713s42.789-28.881 85.715-34.65c43.847-5.897 101.646-5.965 183.004-5.965h170.667c81.357 0 139.157 0.068 183.006 5.965 42.923 5.769 67.657 16.593 85.713 34.65s28.881 42.79 34.65 85.713c5.897 43.849 5.965 101.649 5.965 183.006 0 19.025-0.004 36.762-0.085 53.333h-789.163zM905.553 565.333c-0.832 25.034-2.295 46.663-4.851 65.67-5.769 42.927-16.593 67.658-34.65 85.715s-42.79 28.88-85.713 34.651c-43.849 5.895-101.649 5.963-183.006 5.963h-170.667c-81.358 0-139.157-0.068-183.004-5.963-42.927-5.771-67.658-16.594-85.715-34.651s-28.88-42.789-34.651-85.715c-2.555-19.008-4.016-40.637-4.851-65.67h787.107zM224 277.333c0-17.673 14.327-32 32-32h170.667c17.673 0 32 14.327 32 32s-14.327 32-32 32h-170.667c-17.673 0-32-14.327-32-32zM501.333 277.333c0-17.673 14.327-32 32-32h64c17.673 0 32 14.327 32 32s-14.327 32-32 32h-64c-17.673 0-32-14.327-32-32z" />
<glyph unicode="&#xe948;" glyph-name="chart16" d="M514.118 906.656c28.364 0.001 52.808 0.003 72.38-2.629 20.979-2.82 41.084-9.18 57.393-25.489 16.307-16.309 22.669-36.416 25.491-57.393 2.63-19.574 2.63-44.015 2.63-72.383v-316.9c10.010 3.537 20.774 5.461 32 5.461h128c53.018 0 96-42.982 96-96v-287.998h10.662c17.677 0 32-14.33 32-32 0-17.677-14.323-32-32-32h-853.331c-17.673 0-32 14.323-32 32 0 17.67 14.327 32 32 32h10.666v501.331c0 53.019 42.981 96 96 96h128c11.22 0 21.992-1.925 32-5.463v103.57c-0.001 28.367-0.003 52.81 2.629 72.383 2.82 20.977 9.18 41.084 25.489 57.393s36.417 22.669 57.395 25.489c19.571 2.631 44.015 2.63 72.38 2.629h4.216zM864.013 53.325v287.998c0 17.672-14.33 32-32 32h-128c-17.677 0-32-14.328-32-32v-287.998h192zM608.010 53.325v693.331c0 31.075-0.068 51.162-2.056 65.962-1.869 13.88-4.881 18.23-7.318 20.666s-6.784 5.448-20.663 7.315c-14.801 1.99-34.889 2.058-65.963 2.058s-51.162-0.068-65.962-2.058c-13.88-1.866-18.227-4.879-20.665-7.315-2.436-2.436-5.448-6.786-7.315-20.666-1.99-14.8-2.058-34.887-2.058-65.962v-693.331h192zM352.010 53.325v501.331c0 17.673-14.327 32-32 32h-128c-17.673 0-32-14.327-32-32v-501.331h192z" />
<glyph unicode="&#xe949;" glyph-name="chart20" d="M514.099 906.675c28.365 0.002 52.808 0.003 72.381-2.629 20.977-2.82 41.083-9.18 57.395-25.489 16.307-16.309 22.666-36.416 25.487-57.393 2.632-19.573 2.627-44.015 2.627-72.383v-316.899c10.010 3.533 20.782 5.458 32 5.458h128c53.018 0 96-42.982 96-96v-288h10.67c17.669 0 32-14.326 32-32 0-17.669-14.331-32-32-32h-853.335c-17.673 0-32 14.331-32 32 0 17.674 14.327 32 32 32h10.667v501.335c0 53.019 42.98 96 96 96h128c11.22 0 21.991-1.925 32-5.463v103.569c-0.002 28.367-0.003 52.81 2.629 72.382 2.82 20.977 9.18 41.084 25.489 57.393s36.417 22.669 57.395 25.489c19.571 2.632 44.015 2.63 72.38 2.629h4.215zM863.99 53.34v288c0 17.674-14.326 32-32 32h-128c-17.669 0-32-14.326-32-32v-288h192zM607.99 53.34v693.335c0 31.074-0.067 51.162-2.053 65.961-1.869 13.88-4.884 18.23-7.316 20.666-2.437 2.436-6.784 5.448-20.664 7.314-14.802 1.99-34.888 2.058-65.964 2.058-31.074 0-51.162-0.068-65.963-2.058-13.879-1.866-18.227-4.879-20.665-7.315-2.436-2.436-5.448-6.786-7.314-20.666-1.99-14.8-2.058-34.887-2.058-65.961v-693.335h191.998zM351.992 53.34v501.335c0 17.673-14.327 32-32 32h-128c-17.673 0-32-14.327-32-32v-501.335h192z" />
<glyph unicode="&#xe94a;" glyph-name="chart24" d="M514.108 906.667c28.365 0.001 52.809 0.003 72.38-2.629 20.979-2.82 41.084-9.18 57.395-25.489 16.307-16.309 22.669-36.416 25.489-57.393 2.633-19.573 2.628-44.015 2.628-72.383v-316.901c10.010 3.537 20.779 5.461 32 5.461h128c53.018 0 96-42.982 96-96v-288h10.667c17.673 0 32-14.327 32-32s-14.327-32-32-32h-853.333c-17.673 0-32 14.327-32 32s14.327 32 32 32h10.667v501.333c0 53.019 42.981 96 96 96h128c11.22 0 21.991-1.925 32-5.463v103.569c-0.002 28.367-0.003 52.81 2.629 72.383 2.82 20.977 9.18 41.084 25.489 57.393s36.416 22.669 57.395 25.489c19.571 2.631 44.015 2.63 72.38 2.629h4.215zM864 53.333v288c0 17.673-14.327 32-32 32h-128c-17.673 0-32-14.327-32-32v-288h192zM608 53.333v693.333c0 31.075-0.068 51.162-2.057 65.962-1.869 13.879-4.881 18.23-7.317 20.666s-6.784 5.449-20.663 7.315c-14.801 1.99-34.889 2.057-65.963 2.057s-51.162-0.068-65.963-2.057c-13.879-1.866-18.227-4.879-20.665-7.315-2.436-2.436-5.449-6.786-7.315-20.666-1.99-14.8-2.058-34.887-2.058-65.962v-693.333h192zM352 53.333v501.333c0 17.673-14.327 32-32 32h-128c-17.673 0-32-14.327-32-32v-501.333h192z" />
<glyph unicode="&#xe94b;" glyph-name="chat-Fill16" d="M512.010 21.325c235.638 0 426.665 191.027 426.665 426.665 0 235.642-191.027 426.666-426.665 426.666-235.642 0-426.666-191.025-426.666-426.666 0-68.254 16.026-132.764 44.521-189.974 7.572-15.2 10.093-32.582 5.702-48.986l-25.412-94.982c-11.032-41.229 26.688-78.944 67.919-67.917l94.977 25.414c16.407 4.39 33.784 1.869 48.988-5.702 57.209-28.493 121.718-44.518 189.972-44.518zM341.344 394.656c-17.673 0-32-14.327-32-32s14.327-32 32-32h234.666c17.672 0 32 14.328 32 32s-14.328 32-32 32h-234.666zM309.344 511.99c0 17.672 14.327 32 32 32h341.331c17.677 0 32-14.328 32-32s-14.323-32-32-32h-341.331c-17.673 0-32 14.327-32 32z" />
<glyph unicode="&#xe94c;" glyph-name="chat-Fill20" d="M511.992 21.34c235.641 0 426.668 191.027 426.668 426.668s-191.027 426.667-426.668 426.667c-235.642 0-426.667-191.025-426.667-426.667 0-68.253 16.027-132.76 44.521-189.976 7.572-15.201 10.093-32.579 5.703-48.983l-25.413-94.981c-11.032-41.226 26.688-78.945 67.918-67.917l94.978 25.411c16.407 4.393 33.784 1.869 48.987-5.699 57.209-28.498 121.718-44.524 189.972-44.524zM341.325 394.675c-17.673 0-32-14.326-32-32s14.327-32 32-32h234.665c17.674 0 32 14.326 32 32s-14.326 32-32 32h-234.665zM309.325 512.008c0 17.673 14.327 32 32 32h341.335c17.669 0 32-14.327 32-32s-14.331-32-32-32h-341.335c-17.673 0-32 14.328-32 32z" />
<glyph unicode="&#xe94d;" glyph-name="chat-Fill24" d="M512 21.333c235.639 0 426.667 191.027 426.667 426.667 0 235.642-191.027 426.667-426.667 426.667-235.642 0-426.667-191.025-426.667-426.667 0-68.254 16.026-132.762 44.521-189.973 7.572-15.202 10.093-32.58 5.703-48.986l-25.413-94.98c-11.032-41.229 26.688-78.946 67.919-67.917l94.978 25.412c16.407 4.39 33.784 1.869 48.987-5.7 57.209-28.497 121.718-44.523 189.972-44.523zM341.333 394.667c-17.673 0-32-14.327-32-32s14.327-32 32-32h234.667c17.673 0 32 14.327 32 32s-14.327 32-32 32h-234.667zM309.333 512c0 17.673 14.327 32 32 32h341.333c17.673 0 32-14.327 32-32s-14.327-32-32-32h-341.333c-17.673 0-32 14.327-32 32z" />
<glyph unicode="&#xe94e;" glyph-name="chat16" d="M512.010 842.656c-217.968 0-394.666-176.698-394.666-394.666 0-63.194 14.828-122.829 41.165-175.708 10.57-21.222 14.641-46.598 7.971-71.526l-25.412-94.976c-4.668-17.44 11.291-33.402 28.735-28.736l94.977 25.414c24.926 6.669 50.303 2.598 71.526-7.968 52.877-26.342 112.511-41.165 175.705-41.165 217.967 0 394.665 176.698 394.665 394.665s-176.698 394.666-394.665 394.666zM53.344 447.99c0 253.315 205.352 458.666 458.666 458.666s458.665-205.352 458.665-458.666c0-253.315-205.35-458.665-458.665-458.665-73.314 0-142.698 17.222-204.239 47.872-9.183 4.576-18.561 5.549-26.449 3.437l-94.978-25.414c-65.017-17.395-124.498 42.086-107.102 107.104l25.412 94.976c2.111 7.891 1.14 17.267-3.434 26.451-30.652 61.542-47.877 130.925-47.877 204.239zM309.344 511.99c0 17.672 14.327 32 32 32h341.331c17.677 0 32-14.328 32-32s-14.323-32-32-32h-341.331c-17.673 0-32 14.327-32 32zM309.344 362.656c0 17.673 14.327 32 32 32h234.666c17.672 0 32-14.327 32-32s-14.328-32-32-32h-234.666c-17.673 0-32 14.328-32 32z" />
<glyph unicode="&#xe94f;" glyph-name="chat20" d="M511.992 842.675c-217.969 0-394.667-176.698-394.667-394.667 0-63.194 14.828-122.827 41.165-175.706 10.57-21.222 14.641-46.602 7.972-71.526l-25.413-94.976c-4.667-17.444 11.292-33.403 28.735-28.733l94.978 25.411c24.926 6.666 50.303 2.596 71.525-7.972 52.877-26.337 112.512-41.165 175.706-41.165 217.967 0 394.668 176.701 394.668 394.668 0 217.969-176.701 394.667-394.668 394.667zM53.325 448.008c0 253.315 205.352 458.667 458.667 458.667s458.668-205.352 458.668-458.667c0-253.315-205.353-458.668-458.668-458.668-73.314 0-142.698 17.229-204.239 47.877-9.183 4.572-18.56 5.545-26.449 3.436l-94.978-25.411c-65.017-17.398-124.498 42.086-107.102 107.1l25.412 94.976c2.111 7.89 1.141 17.265-3.433 26.45-30.652 61.542-47.878 130.924-47.878 204.24zM309.325 512.008c0 17.673 14.327 32 32 32h341.335c17.669 0 32-14.327 32-32s-14.331-32-32-32h-341.335c-17.673 0-32 14.328-32 32zM309.325 362.675c0 17.674 14.327 32 32 32h234.665c17.674 0 32-14.326 32-32s-14.326-32-32-32h-234.665c-17.673 0-32 14.326-32 32z" />
<glyph unicode="&#xe950;" glyph-name="chat24" d="M512 842.667c-217.968 0-394.667-176.698-394.667-394.667 0-63.194 14.828-122.829 41.165-175.706 10.57-21.222 14.641-46.601 7.971-71.526l-25.413-94.976c-4.667-17.442 11.291-33.404 28.735-28.736l94.978 25.412c24.926 6.669 50.303 2.598 71.526-7.97 52.877-26.338 112.512-41.165 175.705-41.165 217.967 0 394.667 176.7 394.667 394.667 0 217.968-176.7 394.667-394.667 394.667zM53.333 448c0 253.315 205.352 458.667 458.667 458.667s458.667-205.352 458.667-458.667c0-253.316-205.35-458.667-458.667-458.667-73.314 0-142.698 17.225-204.239 47.876-9.184 4.574-18.56 5.547-26.449 3.435l-94.978-25.412c-65.017-17.395-124.498 42.086-107.102 107.102l25.412 94.976c2.111 7.889 1.14 17.267-3.433 26.449-30.653 61.542-47.878 130.927-47.878 204.241zM309.333 512c0 17.673 14.327 32 32 32h341.333c17.673 0 32-14.327 32-32s-14.327-32-32-32h-341.333c-17.673 0-32 14.327-32 32zM309.333 362.667c0 17.673 14.327 32 32 32h234.667c17.673 0 32-14.327 32-32s-14.327-32-32-32h-234.667c-17.673 0-32 14.327-32 32z" />
<glyph unicode="&#xe951;" glyph-name="check-circle16" d="M683.949 532.030c12.499 12.495 12.499 32.757 0 45.254s-32.755 12.497-45.252 0l-190.707-190.704-62.706 62.703c-12.497 12.497-32.758 12.497-45.255 0s-12.497-32.755 0-45.252l85.333-85.336c12.499-12.493 32.756-12.493 45.254 0l213.333 213.336zM512.010 906.656c-253.315 0-458.666-205.352-458.666-458.666s205.352-458.665 458.666-458.665c253.315 0 458.665 205.35 458.665 458.665s-205.35 458.666-458.665 458.666zM117.344 447.99c0 217.968 176.698 394.666 394.666 394.666s394.665-176.698 394.665-394.666c0-217.967-176.698-394.665-394.665-394.665s-394.666 176.698-394.666 394.665z" />
<glyph unicode="&#xe952;" glyph-name="check-circle20" d="M683.965 532.049c12.498 12.495 12.498 32.757 0 45.254-12.493 12.496-32.753 12.496-45.251 0l-190.707-190.707-62.706 62.706c-12.497 12.497-32.758 12.497-45.255 0-12.496-12.499-12.496-32.754 0-45.252l85.334-85.335c12.498-12.498 32.756-12.498 45.254 0l213.331 213.334zM511.992 906.675c-253.315 0-458.667-205.352-458.667-458.667s205.352-458.668 458.667-458.668c253.315 0 458.668 205.353 458.668 458.668s-205.353 458.667-458.668 458.667zM117.325 448.008c0 217.969 176.698 394.667 394.667 394.667 217.967 0 394.668-176.698 394.668-394.667 0-217.967-176.701-394.668-394.668-394.668-217.969 0-394.667 176.701-394.667 394.668z" />
<glyph unicode="&#xe953;" glyph-name="check-circle24" d="M683.959 532.041c12.497 12.495 12.497 32.757 0 45.254s-32.755 12.497-45.252 0l-190.707-190.704-62.706 62.703c-12.497 12.497-32.758 12.497-45.255 0s-12.497-32.755 0-45.252l85.333-85.333c12.498-12.497 32.756-12.497 45.254 0l213.333 213.333zM512 906.667c-253.315 0-458.667-205.352-458.667-458.667s205.352-458.667 458.667-458.667c253.316 0 458.667 205.35 458.667 458.667 0 253.315-205.35 458.667-458.667 458.667zM117.333 448c0 217.968 176.698 394.667 394.667 394.667 217.967 0 394.667-176.698 394.667-394.667 0-217.967-176.7-394.667-394.667-394.667-217.968 0-394.667 176.7-394.667 394.667z" />
<glyph unicode="&#xe954;" glyph-name="check16" d="M683.949 532.030c12.499 12.495 12.499 32.757 0 45.254s-32.755 12.497-45.252 0l-190.707-190.704-62.706 62.703c-12.497 12.497-32.758 12.497-45.255 0s-12.497-32.755 0-45.252l85.333-85.336c12.499-12.493 32.756-12.493 45.254 0l213.333 213.336zM514.46 906.656h-4.898c-98.49 0-175.676 0.001-235.9-8.096-61.642-8.288-110.283-25.582-148.461-63.761s-55.473-86.819-63.761-148.461c-8.097-60.223-8.096-137.409-8.096-235.9v-4.898c0-98.492-0.001-175.678 8.096-235.902 8.288-61.638 25.582-110.285 63.761-148.461s86.819-55.469 148.461-63.763c60.223-8.090 137.409-8.090 235.9-8.090h4.898c98.492 0 175.678 0 235.902 8.090 61.638 8.294 110.285 25.587 148.461 63.763s55.469 86.822 63.763 148.461c8.090 60.224 8.090 137.411 8.090 235.902v4.898c0 98.491 0 175.676-8.090 235.9-8.294 61.642-25.587 110.283-63.763 148.461s-86.822 55.473-148.461 63.761c-60.224 8.097-137.411 8.096-235.902 8.096zM170.455 789.545c24.305 24.305 57.189 38.253 111.735 45.586 55.466 7.457 128.349 7.525 229.82 7.525s174.351-0.068 229.82-7.525c54.547-7.333 87.43-21.281 111.738-45.586s38.253-57.189 45.581-111.735c7.462-55.466 7.526-128.349 7.526-229.82s-0.064-174.351-7.526-229.82c-7.328-54.547-21.274-87.43-45.581-111.738s-57.19-38.253-111.738-45.581c-55.469-7.462-128.35-7.526-229.82-7.526s-174.355 0.064-229.82 7.526c-54.546 7.328-87.43 21.274-111.735 45.581s-38.253 57.19-45.586 111.738c-7.457 55.469-7.525 128.35-7.525 229.82s0.068 174.355 7.525 229.82c7.333 54.546 21.281 87.43 45.586 111.735z" />
<glyph unicode="&#xe955;" glyph-name="check20" d="M683.965 532.049c12.498 12.495 12.498 32.757 0 45.254-12.493 12.496-32.753 12.496-45.251 0l-190.707-190.707-62.706 62.706c-12.497 12.497-32.758 12.497-45.255 0-12.496-12.499-12.496-32.754 0-45.252l85.334-85.335c12.498-12.498 32.756-12.498 45.254 0l213.331 213.334zM514.442 906.675h-4.9c-98.49 0-175.676 0.001-235.899-8.096-61.642-8.288-110.283-25.582-148.462-63.76s-55.473-86.82-63.76-148.462c-8.097-60.223-8.096-137.409-8.096-235.899v-4.9c0-98.488-0.001-175.672 8.096-235.899 8.288-61.64 25.582-110.285 63.76-148.465 38.179-38.175 86.82-55.47 148.462-63.759 60.223-8.095 137.409-8.095 235.899-8.095h4.9c98.488 0 175.672 0 235.899 8.095 61.64 8.289 110.285 25.585 148.465 63.759 38.175 38.18 55.47 86.825 63.759 148.465 8.095 60.227 8.095 137.411 8.095 235.899v4.9c0 98.49 0 175.676-8.095 235.899-8.289 61.642-25.585 110.283-63.759 148.462-38.18 38.178-86.825 55.473-148.465 63.76-60.227 8.097-137.411 8.096-235.899 8.096zM170.437 789.563c24.305 24.306 57.189 38.253 111.734 45.586 55.466 7.457 128.35 7.525 229.821 7.525s174.354-0.068 229.819-7.525c54.543-7.333 87.429-21.281 111.734-45.586 24.31-24.305 38.257-57.189 45.588-111.734 7.455-55.466 7.526-128.35 7.526-229.821s-0.072-174.354-7.526-229.819c-7.332-54.543-21.279-87.429-45.588-111.734-24.305-24.31-57.19-38.257-111.734-45.588-55.465-7.455-128.348-7.526-229.819-7.526s-174.355 0.072-229.821 7.526c-54.545 7.332-87.429 21.279-111.734 45.588-24.306 24.305-38.253 57.19-45.586 111.734-7.457 55.465-7.525 128.348-7.525 229.819s0.068 174.355 7.525 229.821c7.333 54.545 21.281 87.429 45.586 111.734z" />
<glyph unicode="&#xe956;" glyph-name="check24" d="M683.959 532.041c12.497 12.495 12.497 32.757 0 45.254s-32.755 12.497-45.252 0l-190.707-190.704-62.706 62.703c-12.497 12.497-32.758 12.497-45.255 0s-12.497-32.755 0-45.252l85.333-85.333c12.498-12.497 32.756-12.497 45.254 0l213.333 213.333zM514.449 906.667h-4.898c-98.49 0-175.676 0.001-235.899-8.096-61.642-8.288-110.283-25.582-148.462-63.761s-55.473-86.819-63.761-148.462c-8.097-60.223-8.096-137.408-8.096-235.899v-4.898c0-98.492-0.001-175.676 8.096-235.9 8.288-61.641 25.582-110.285 63.761-148.463s86.819-55.471 148.462-63.761c60.223-8.094 137.409-8.094 235.899-8.094h4.898c98.492 0 175.676 0 235.9 8.094 61.641 8.29 110.285 25.583 148.463 63.761s55.471 86.822 63.761 148.463c8.094 60.224 8.094 137.408 8.094 235.9v4.898c0 98.49 0 175.676-8.094 235.899-8.29 61.642-25.583 110.283-63.761 148.462s-86.822 55.473-148.463 63.761c-60.224 8.097-137.408 8.096-235.9 8.096zM170.445 789.555c24.305 24.305 57.189 38.253 111.735 45.586 55.466 7.457 128.349 7.525 229.821 7.525 101.47 0 174.353-0.068 229.82-7.525 54.545-7.334 87.428-21.281 111.735-45.586s38.255-57.189 45.585-111.735c7.458-55.466 7.526-128.349 7.526-229.821 0-101.47-0.068-174.353-7.526-229.82-7.33-54.545-21.278-87.428-45.585-111.735s-57.19-38.255-111.735-45.585c-55.467-7.458-128.35-7.526-229.82-7.526-101.471 0-174.355 0.068-229.821 7.526-54.545 7.33-87.43 21.278-111.735 45.585s-38.253 57.19-45.586 111.735c-7.457 55.467-7.525 128.35-7.525 229.82 0 101.471 0.068 174.355 7.525 229.821 7.334 54.545 21.281 87.43 45.586 111.735z" />
<glyph unicode="&#xe957;" glyph-name="clipboard-Fill16" d="M341.344 810.656c0 35.347 28.653 64 64 64h213.333c35.345 0 63.998-28.653 63.998-64v-42.666c0-35.347-28.653-64-63.998-64h-213.333c-35.347 0-64 28.653-64 64v42.666zM277.333 787.781c-53.67-3.011-87.553-11.564-111.843-35.853-37.491-37.491-37.491-97.83-37.491-218.509v-256.004c0-120.678 0-181.018 37.491-218.509s97.83-37.491 218.509-37.491h256c120.678 0 181.018 0 218.509 37.491s37.491 97.83 37.491 218.509v256.004c0 120.68 0 181.019-37.491 218.509-24.288 24.29-58.17 32.843-111.84 35.853v-19.771c0-70.692-57.306-128-128.002-128h-213.334c-70.692 0-128 57.308-128 128v19.771zM266.667 512.010c0 17.673 14.327 32 32 32h426.664c17.677 0 32-14.327 32-32s-14.323-32-32-32h-426.664c-17.673 0-32 14.328-32 32zM309.333 362.677c0 17.672 14.327 32 32 32h341.336c17.67 0 32-14.328 32-32s-14.33-32-32-32h-341.336c-17.673 0-32 14.328-32 32zM352 213.344c0 17.67 14.327 32 32 32h256c17.67 0 32-14.33 32-32s-14.33-32-32-32h-256c-17.673 0-32 14.33-32 32z" />
<glyph unicode="&#xe958;" glyph-name="clipboard-Fill20" d="M341.325 810.675c0 35.346 28.654 64 64 64h213.335c35.343 0 64-28.654 64-64v-42.667c0-35.346-28.657-64-64-64h-213.335c-35.346 0-64 28.654-64 64v42.667zM277.334 787.775c-53.671-3.011-87.553-11.564-111.843-35.854-37.49-37.49-37.49-97.83-37.49-218.509v-256c0-120.678 0-181.018 37.49-218.511 37.491-37.489 97.83-37.489 218.51-37.489h256c120.678 0 181.018 0 218.506 37.489 37.494 37.494 37.494 97.833 37.494 218.511v256c0 120.679 0 181.019-37.494 218.509-24.289 24.29-58.168 32.843-111.841 35.854v-19.771c0-70.692-57.303-128-128-128h-213.331c-70.692 0-128 57.308-128 128v19.771zM266.666 512.004c0 17.673 14.327 32 32 32h426.669c17.669 0 32-14.327 32-32s-14.331-32-32-32h-426.669c-17.673 0-32 14.327-32 32zM309.334 362.67c0 17.674 14.327 32 32 32h341.331c17.674 0 32-14.326 32-32s-14.326-32-32-32h-341.331c-17.673 0-32 14.326-32 32zM352 213.335c0 17.674 14.327 32 32 32h256c17.674 0 32-14.326 32-32 0-17.669-14.326-32-32-32h-256c-17.673 0-32 14.331-32 32z" />
<glyph unicode="&#xe959;" glyph-name="clipboard-Fill24" d="M341.333 810.667c0 35.346 28.654 64 64 64h213.333c35.345 0 64-28.654 64-64v-42.667c0-35.346-28.655-64-64-64h-213.333c-35.346 0-64 28.654-64 64v42.667zM277.333 787.771c-53.671-3.011-87.553-11.564-111.843-35.854-37.49-37.49-37.49-97.83-37.49-218.51v-256.002c0-120.678 0-181.018 37.49-218.509s97.83-37.491 218.51-37.491h256c120.678 0 181.018 0 218.509 37.491s37.491 97.83 37.491 218.509v256.002c0 120.68 0 181.019-37.491 218.51-24.29 24.29-58.172 32.843-111.842 35.854v-19.771c0-70.692-57.306-128-128-128h-213.333c-70.692 0-128 57.308-128 128v19.771zM266.667 512c0 17.673 14.327 32 32 32h426.667c17.673 0 32-14.327 32-32s-14.327-32-32-32h-426.667c-17.673 0-32 14.327-32 32zM309.333 362.667c0 17.673 14.327 32 32 32h341.333c17.673 0 32-14.327 32-32s-14.327-32-32-32h-341.333c-17.673 0-32 14.327-32 32zM352 213.333c0 17.673 14.327 32 32 32h256c17.673 0 32-14.327 32-32s-14.327-32-32-32h-256c-17.673 0-32 14.327-32 32z" />
<glyph unicode="&#xe95a;" glyph-name="clipboard16" d="M309.871 820.877c5.103 48.214 45.896 85.779 95.462 85.779h213.334c49.564 0 90.357-37.566 95.464-85.779 32.557-0.663 60.71-2.347 84.742-6.762 32.339-5.94 59.866-17.258 82.266-39.654 25.683-25.682 36.73-58.018 41.888-96.422 4.973-36.991 4.973-84.023 4.973-142.374v-260.682c0-58.355 0-105.382-4.973-142.374-5.158-38.406-16.205-70.739-41.888-96.422s-58.016-36.73-96.422-41.894c-36.992-4.966-84.026-4.966-142.374-4.966h-260.684c-58.351 0-105.383 0-142.374 4.966-38.404 5.165-70.74 16.211-96.422 41.894s-36.728 58.016-41.891 96.422c-4.973 36.992-4.972 84.019-4.972 142.374v260.682c-0.001 58.351-0.002 105.383 4.972 142.374 5.164 38.404 16.209 70.74 41.891 96.422 22.397 22.397 49.92 33.714 82.262 39.654 24.037 4.415 52.188 6.099 84.746 6.762zM309.972 756.859c-30.643-0.654-54.255-2.196-73.285-5.691-24.184-4.443-38.182-11.576-48.569-21.963-11.809-11.809-19.508-28.388-23.716-59.695-4.333-32.228-4.401-74.942-4.401-136.187v-255.998c0-61.248 0.068-103.962 4.401-136.192 4.209-31.309 11.908-47.885 23.716-59.693s28.388-19.507 59.695-23.718c32.228-4.333 74.942-4.397 136.187-4.397h256c61.242 0 103.955 0.064 136.186 4.397 31.309 4.211 47.885 11.91 59.699 23.718 11.808 11.808 19.507 28.384 23.718 59.693 4.326 32.23 4.397 74.944 4.397 136.192v255.998c0 61.245-0.070 103.958-4.397 136.187-4.211 31.308-11.91 47.887-23.718 59.695-10.394 10.387-24.384 17.52-48.57 21.963-19.034 3.495-42.643 5.037-73.286 5.691-5.517-47.776-46.106-84.869-95.362-84.869h-213.334c-49.254 0-89.846 37.093-95.361 84.869zM405.333 842.656c-17.673 0-32-14.327-32-32v-42.666c0-17.673 14.327-32 32-32h213.334c17.672 0 32.002 14.327 32.002 32v42.666c0 17.673-14.33 32-32.002 32h-213.334zM266.667 511.99c0 17.672 14.327 32 32 32h426.664c17.677 0 32-14.328 32-32s-14.323-32-32-32h-426.664c-17.673 0-32 14.327-32 32zM309.333 362.656c0 17.673 14.327 32 32 32h341.336c17.67 0 32-14.327 32-32s-14.33-32-32-32h-341.336c-17.673 0-32 14.328-32 32zM352 213.325c0 17.67 14.327 32 32 32h256c17.67 0 32-14.33 32-32 0-17.677-14.33-32-32-32h-256c-17.673 0-32 14.323-32 32z" />
<glyph unicode="&#xe95b;" glyph-name="clipboard20" d="M309.871 820.896c5.103 48.214 45.896 85.779 95.462 85.779h213.331c49.567 0 90.363-37.565 95.462-85.779 32.563-0.663 60.713-2.347 84.746-6.762 32.343-5.941 59.863-17.257 82.263-39.654 25.682-25.682 36.731-58.018 41.892-96.422 4.972-36.991 4.972-84.023 4.972-142.373v-260.683c0-58.353 0-105.385-4.972-142.377-5.161-38.405-16.21-70.738-41.892-96.42s-58.015-36.731-96.42-41.892c-36.992-4.972-84.024-4.972-142.372-4.972h-260.686c-58.351 0-105.383 0-142.374 4.972-38.405 5.161-70.74 16.21-96.422 41.892s-36.728 58.015-41.891 96.42c-4.973 36.992-4.973 84.024-4.972 142.377v260.683c-0.001 58.35-0.002 105.382 4.972 142.373 5.164 38.405 16.209 70.74 41.891 96.422 22.397 22.397 49.92 33.714 82.262 39.654 24.037 4.415 52.189 6.099 84.747 6.762zM309.971 756.878c-30.642-0.654-54.255-2.196-73.285-5.691-24.184-4.442-38.182-11.575-48.569-21.962-11.809-11.809-19.508-28.388-23.717-59.696-4.333-32.228-4.401-74.942-4.401-136.187v-256.002c0-61.24 0.068-103.956 4.401-136.187 4.209-31.309 11.908-47.882 23.717-59.694s28.388-19.507 59.695-23.721c32.228-4.326 74.942-4.398 136.187-4.398h256c61.245 0 103.956 0.072 136.187 4.398 31.309 4.214 47.887 11.909 59.694 23.721 11.812 11.812 19.507 28.385 23.721 59.694 4.332 32.23 4.398 74.947 4.398 136.187v256.002c0 61.244-0.067 103.959-4.398 136.187-4.214 31.308-11.909 47.887-23.721 59.696-10.388 10.387-24.381 17.52-48.568 21.962-19.031 3.495-42.644 5.038-73.288 5.691-5.509-47.776-46.106-84.87-95.36-84.87h-213.331c-49.255 0-89.846 37.094-95.362 84.87zM405.334 842.675c-17.673 0-32-14.327-32-32v-42.667c0-17.673 14.327-32 32-32h213.331c17.674 0 32 14.327 32 32v42.667c0 17.673-14.326 32-32 32h-213.331zM266.666 512.008c0 17.673 14.327 32 32 32h426.669c17.669 0 32-14.327 32-32s-14.331-32-32-32h-426.669c-17.673 0-32 14.328-32 32zM309.334 362.675c0 17.674 14.327 32 32 32h341.331c17.674 0 32-14.326 32-32s-14.326-32-32-32h-341.331c-17.673 0-32 14.326-32 32zM352 213.34c0 17.674 14.327 32 32 32h256c17.674 0 32-14.326 32-32 0-17.669-14.326-32-32-32h-256c-17.673 0-32 14.331-32 32z" />
<glyph unicode="&#xe95c;" glyph-name="clipboard24" d="M309.871 820.887c5.103 48.214 45.896 85.779 95.462 85.779h213.333c49.566 0 90.359-37.565 95.462-85.779 32.559-0.663 60.71-2.347 84.745-6.763 32.341-5.94 59.866-17.257 82.266-39.654 25.681-25.682 36.727-58.018 41.89-96.422 4.971-36.991 4.971-84.023 4.971-142.374v-260.684c0-58.351 0-105.382-4.971-142.374-5.163-38.404-16.209-70.737-41.89-96.422-25.685-25.681-58.018-36.727-96.422-41.89-36.992-4.971-84.023-4.971-142.374-4.971h-260.684c-58.351 0-105.383 0-142.374 4.971-38.405 5.163-70.74 16.209-96.422 41.89-25.682 25.685-36.728 58.018-41.891 96.422-4.973 36.992-4.972 84.023-4.972 142.374v260.684c-0.001 58.351-0.002 105.383 4.972 142.374 5.164 38.405 16.209 70.74 41.891 96.422 22.397 22.397 49.92 33.714 82.261 39.654 24.038 4.416 52.189 6.1 84.747 6.763zM309.972 756.87c-30.642-0.654-54.255-2.196-73.285-5.691-24.184-4.442-38.182-11.575-48.569-21.963-11.808-11.808-19.508-28.388-23.717-59.695-4.333-32.228-4.401-74.942-4.401-136.187v-256c0-61.244 0.068-103.957 4.401-136.188 4.209-31.309 11.908-47.885 23.717-59.695s28.388-19.507 59.695-23.718c32.228-4.331 74.942-4.399 136.187-4.399h256c61.244 0 103.957 0.068 136.188 4.399 31.309 4.211 47.885 11.908 59.695 23.718s19.507 28.386 23.718 59.695c4.331 32.23 4.399 74.944 4.399 136.188v256c0 61.245-0.068 103.959-4.399 136.187-4.211 31.308-11.908 47.887-23.718 59.695-10.389 10.387-24.384 17.52-48.567 21.963-19.034 3.495-42.645 5.037-73.289 5.691-5.513-47.776-46.106-84.87-95.36-84.87h-213.333c-49.255 0-89.846 37.094-95.362 84.87zM405.333 842.667c-17.673 0-32-14.327-32-32v-42.667c0-17.673 14.327-32 32-32h213.333c17.673 0 32 14.327 32 32v42.667c0 17.673-14.327 32-32 32h-213.333zM266.667 512c0 17.673 14.327 32 32 32h426.667c17.673 0 32-14.327 32-32s-14.327-32-32-32h-426.667c-17.673 0-32 14.327-32 32zM309.333 362.667c0 17.673 14.327 32 32 32h341.333c17.673 0 32-14.327 32-32s-14.327-32-32-32h-341.333c-17.673 0-32 14.327-32 32zM352 213.333c0 17.673 14.327 32 32 32h256c17.673 0 32-14.327 32-32s-14.327-32-32-32h-256c-17.673 0-32 14.327-32 32z" />
<glyph unicode="&#xe95d;" glyph-name="clock-circle16" d="M512.010 842.656c-217.968 0-394.666-176.698-394.666-394.666s176.698-394.665 394.666-394.665c217.967 0 394.665 176.698 394.665 394.665s-176.698 394.666-394.665 394.666zM53.344 447.99c0 253.315 205.352 458.666 458.666 458.666s458.665-205.352 458.665-458.666c0-253.315-205.35-458.665-458.665-458.665s-458.666 205.35-458.666 458.665zM512.010 650.656c17.672 0 32-14.327 32-32v-157.41l97.295-97.297c12.493-12.497 12.493-32.756 0-45.255-12.499-12.493-32.758-12.493-45.255 0l-106.666 106.669c-6.003 5.999-9.374 14.14-9.374 22.626v170.666c0 17.673 14.328 32 32 32z" />
<glyph unicode="&#xe95e;" glyph-name="clock-circle20" d="M511.992 842.675c-217.969 0-394.667-176.698-394.667-394.667 0-217.967 176.698-394.668 394.667-394.668 217.967 0 394.668 176.701 394.668 394.668 0 217.969-176.701 394.667-394.668 394.667zM53.325 448.008c0 253.315 205.352 458.667 458.667 458.667s458.668-205.352 458.668-458.667c0-253.315-205.353-458.668-458.668-458.668s-458.667 205.353-458.667 458.668zM511.992 650.675c17.672 0 31.998-14.327 31.998-32v-157.41l97.295-97.299c12.498-12.493 12.498-32.753 0-45.251s-32.758-12.498-45.251 0l-106.669 106.665c-6.003 6.001-9.374 14.141-9.374 22.628v170.667c0 17.673 14.327 32 32 32z" />
<glyph unicode="&#xe95f;" glyph-name="clock-circle24" d="M512 842.667c-217.968 0-394.667-176.698-394.667-394.667 0-217.967 176.698-394.667 394.667-394.667 217.967 0 394.667 176.7 394.667 394.667 0 217.968-176.7 394.667-394.667 394.667zM53.333 448c0 253.315 205.352 458.667 458.667 458.667s458.667-205.352 458.667-458.667c0-253.316-205.35-458.667-458.667-458.667-253.315 0-458.667 205.35-458.667 458.667zM512 650.667c17.673 0 32-14.327 32-32v-157.41l97.293-97.297c12.497-12.497 12.497-32.755 0-45.252s-32.755-12.497-45.252 0l-106.667 106.667c-6.003 5.999-9.374 14.14-9.374 22.626v170.667c0 17.673 14.327 32 32 32z" />
<glyph unicode="&#xe960;" glyph-name="clock-square16" d="M509.561 906.656h4.899c98.492 0 175.678 0.001 235.902-8.096 61.638-8.288 110.285-25.582 148.461-63.761s55.469-86.819 63.763-148.461c8.090-60.223 8.090-137.409 8.090-235.899v-4.899c0-98.492 0-175.678-8.090-235.902-8.294-61.638-25.587-110.285-63.763-148.461s-86.822-55.469-148.461-63.763c-60.224-8.090-137.411-8.090-235.902-8.090h-4.899c-98.49 0-175.676 0-235.899 8.090-61.642 8.294-110.283 25.587-148.461 63.763s-55.473 86.822-63.761 148.461c-8.097 60.224-8.096 137.411-8.096 235.902v4.899c0 98.49-0.001 175.676 8.096 235.899 8.288 61.642 25.582 110.283 63.761 148.461s86.819 55.473 148.461 63.761c60.223 8.097 137.409 8.096 235.899 8.096zM282.19 835.131c-54.546-7.333-87.43-21.281-111.735-45.586s-38.253-57.189-45.586-111.735c-7.457-55.466-7.525-128.349-7.525-229.82s0.068-174.351 7.525-229.82c7.333-54.547 21.281-87.43 45.586-111.738s57.189-38.253 111.735-45.581c55.466-7.462 128.349-7.526 229.82-7.526s174.351 0.064 229.82 7.526c54.547 7.328 87.43 21.274 111.738 45.581s38.253 57.19 45.581 111.738c7.462 55.469 7.526 128.35 7.526 229.82s-0.064 174.355-7.526 229.82c-7.328 54.546-21.274 87.43-45.581 111.735s-57.19 38.253-111.738 45.586c-55.469 7.457-128.35 7.525-229.82 7.525s-174.355-0.068-229.82-7.525zM512.010 650.656c17.673 0 32-14.327 32-32v-157.41l97.295-97.297c12.493-12.497 12.493-32.756 0-45.255-12.499-12.493-32.758-12.493-45.255 0l-91.046 91.049c-12.331 12.33-18.5 18.496-21.747 26.338-3.247 7.838-3.247 16.559-3.247 34.001v148.573c0 17.673 14.328 32 32 32z" />
<glyph unicode="&#xe961;" glyph-name="clock-square20" d="M509.542 906.675h4.9c98.488 0 175.672 0.001 235.899-8.096 61.64-8.288 110.285-25.582 148.465-63.76 38.175-38.179 55.47-86.82 63.759-148.462 8.095-60.223 8.095-137.409 8.095-235.899v-4.9c0-98.488 0-175.672-8.095-235.899-8.289-61.64-25.585-110.285-63.759-148.465-38.18-38.175-86.825-55.47-148.465-63.759-60.227-8.095-137.411-8.095-235.899-8.095h-4.9c-98.49 0-175.676 0-235.899 8.095-61.642 8.289-110.283 25.585-148.462 63.759-38.178 38.18-55.473 86.825-63.76 148.465-8.097 60.227-8.096 137.411-8.096 235.899v4.9c0 98.49-0.001 175.676 8.096 235.899 8.288 61.642 25.582 110.283 63.76 148.462s86.82 55.473 148.462 63.76c60.223 8.097 137.409 8.096 235.899 8.096zM282.171 835.15c-54.545-7.333-87.429-21.281-111.734-45.586s-38.253-57.189-45.586-111.734c-7.457-55.466-7.525-128.35-7.525-229.821s0.068-174.354 7.525-229.819c7.333-54.543 21.281-87.429 45.586-111.734 24.305-24.31 57.189-38.257 111.734-45.588 55.466-7.455 128.35-7.526 229.821-7.526s174.354 0.072 229.819 7.526c54.543 7.332 87.429 21.279 111.734 45.588 24.31 24.305 38.257 57.19 45.588 111.734 7.455 55.465 7.526 128.348 7.526 229.819s-0.072 174.355-7.526 229.821c-7.332 54.545-21.279 87.429-45.588 111.734-24.305 24.306-57.19 38.253-111.734 45.586-55.465 7.457-128.348 7.525-229.819 7.525s-174.355-0.068-229.821-7.525zM511.992 650.675c17.672 0 31.998-14.327 31.998-32v-157.41l97.295-97.299c12.498-12.493 12.498-32.753 0-45.251s-32.758-12.498-45.251 0l-91.049 91.049c-12.33 12.329-18.5 18.493-21.747 26.337-3.247 7.839-3.247 16.558-3.247 34v148.574c0 17.673 14.327 32 32 32z" />
</font>
</defs>
</svg>
